<svg id="Layer_1" enable-background="new 0 0 512 512" viewBox="0 0 512 512" xmlns="http://www.w3.org/2000/svg"><path d="m463.449 177.569c-2.891-16.397-13.376-29.445-28.768-35.799l-7.848-3.239c-13.901-5.738-21.91-19.611-19.93-34.519l1.119-8.419c2.193-16.504-3.864-32.108-16.619-42.812-12.757-10.703-29.178-13.957-45.047-8.932l-8.095 2.563c-14.338 4.542-29.392-.937-37.458-13.634l-4.552-7.163c-8.929-14.054-23.6-22.115-40.251-22.115-16.65 0-31.321 8.061-40.25 22.115l-4.553 7.165c-8.066 12.695-23.12 18.174-37.458 13.633l-8.095-2.563c-15.873-5.024-32.292-1.769-45.047 8.932-12.755 10.703-18.812 26.307-16.618 42.812l1.119 8.417c1.981 14.909-6.028 28.781-19.932 34.52l-7.849 3.241c-15.39 6.353-25.875 19.401-28.768 35.799-2.89 16.396 2.5 32.243 14.79 43.478l6.268 5.729c11.102 10.147 13.883 25.923 6.922 39.256l-3.93 7.525c-7.707 14.761-7.352 31.496.973 45.915 8.326 14.421 22.642 23.096 39.277 23.801l8.481.359c.035.001.069.007.104.009l-47.121 111.012c-1.152 2.714-.607 5.851 1.392 8.017 1.999 2.167 5.083 2.963 7.879 2.03l64.002-21.29 29.144 60.828c1.249 2.607 3.882 4.26 6.763 4.26.057 0 .114-.001.171-.002 2.947-.066 5.582-1.854 6.734-4.567l43.423-102.301 2.249-1.73c11.921-9.17 27.939-9.17 39.86 0l2.247 1.728 43.425 102.302c1.152 2.714 3.787 4.501 6.734 4.567.057.001.114.002.171.002 2.88 0 5.514-1.652 6.763-4.26l29.144-60.828 64.001 21.29c2.795.933 5.88.137 7.879-2.03 2-2.166 2.544-5.303 1.392-8.017l-47.124-111.014c.036-.002.071-.007.106-.009l8.48-.359c16.636-.705 30.952-9.38 39.277-23.8 8.326-14.42 8.682-31.155.975-45.914l-3.93-7.527c-6.96-13.333-4.179-29.108 6.921-39.255l6.267-5.729c12.291-11.233 17.681-27.08 14.791-43.478zm-280.368 305.21-24.824-51.812c-1.632-3.409-5.548-5.072-9.131-3.876l-54.515 18.135 41.38-97.484c7.924 4.406 13.787 12.035 15.877 21.511l1.828 8.292c3.584 16.261 14.613 28.853 30.258 34.547 5.476 1.993 11.059 2.975 16.573 2.975 4.054 0 8.067-.54 11.971-1.591zm234.306-37.553-54.514-18.134c-3.583-1.193-7.498.468-9.131 3.876l-24.824 51.812-29.423-69.316c9.215 2.483 19.046 2.087 28.55-1.371 15.646-5.695 26.676-18.287 30.26-34.547l1.828-8.292c2.088-9.478 7.95-17.107 15.874-21.512zm21.152-235.251-6.267 5.729c-16.195 14.803-20.252 37.817-10.098 57.268l3.93 7.528c5.36 10.266 5.123 21.442-.668 31.472-5.791 10.029-15.352 15.823-26.922 16.313l-8.48.359c-21.923.929-39.826 15.951-44.548 37.381l-1.828 8.292c-2.493 11.309-9.859 19.719-20.742 23.68-10.882 3.96-21.931 2.253-31.109-4.808l-6.73-5.178c-17.392-13.381-40.762-13.379-58.153 0l-6.729 5.178c-9.18 7.061-20.228 8.77-31.109 4.808-10.881-3.961-18.247-12.37-20.74-23.68l-1.828-8.293c-4.725-21.428-22.627-36.449-44.548-37.379l-8.481-.359c-11.57-.49-21.131-6.284-26.922-16.314-5.79-10.028-6.027-21.206-.667-31.472l3.93-7.525c10.156-19.451 6.098-42.467-10.098-57.271l-6.268-5.729c-8.548-7.813-12.148-18.397-10.138-29.801 2.012-11.405 9.015-20.12 19.72-24.539l7.848-3.241c20.283-8.372 31.968-28.611 29.077-50.361l-1.119-8.417c-1.526-11.479 2.519-21.901 11.39-29.345 6.106-5.124 13.205-7.75 20.637-7.75 3.365 0 6.8.539 10.241 1.628l8.094 2.562c20.917 6.628 42.879-1.367 54.646-19.889l4.553-7.165c6.209-9.773 16.007-15.157 27.587-15.157 11.581 0 21.379 5.384 27.589 15.159l4.552 7.164c11.767 18.521 33.729 26.512 54.646 19.89l8.096-2.563c11.038-3.496 22.005-1.322 30.877 6.122 8.872 7.445 12.917 17.866 11.392 29.345l-1.119 8.419c-2.89 21.75 8.794 41.989 29.076 50.36l7.847 3.239c10.706 4.419 17.709 13.134 19.719 24.538 2.012 11.406-1.588 21.989-10.136 29.802zm-182.539-126.949c-69.625 0-126.269 56.644-126.269 126.269s56.644 126.268 126.269 126.268 126.269-56.644 126.269-126.269-56.644-126.268-126.269-126.268zm0 237.537c-61.354 0-111.269-49.915-111.269-111.269s49.915-111.269 111.269-111.269 111.269 49.915 111.269 111.269-49.915 111.269-111.269 111.269zm68.202-168.999c-5.064-4.333-11.506-6.432-18.159-5.918-6.645.517-12.691 3.591-17.021 8.65l-47.932 55.919-18.506-20.61c-9.212-10.234-25.034-11.068-35.27-1.856-4.958 4.462-7.882 10.589-8.233 17.25-.351 6.659 1.912 13.056 6.371 18.013l37.498 41.76c4.75 5.276 11.461 8.253 18.536 8.253.311 0 .624-.006.936-.018 7.37-.273 14.185-3.736 18.729-9.509l65.788-76.751c8.946-10.454 7.718-26.237-2.737-35.183zm-8.656 25.427-65.895 76.875c-.081.094-.16.191-.236.29-1.814 2.344-4.566 3.751-7.548 3.862-2.992.102-5.763-1.054-7.761-3.273l-37.492-41.753c-.002-.002-.004-.004-.006-.007-1.782-1.98-2.687-4.536-2.546-7.196.14-2.661 1.308-5.107 3.288-6.89 1.904-1.713 4.291-2.556 6.669-2.556 2.729 0 5.448 1.11 7.411 3.291l24.212 26.964c1.442 1.606 3.499 2.498 5.667 2.489 2.159-.025 4.203-.979 5.608-2.619l53.5-62.415c3.568-4.17 9.864-4.66 14.034-1.091 2.02 1.729 3.246 4.14 3.452 6.791s-.633 5.223-2.357 7.238z"/></svg>