<svg height="512pt" viewBox="0 -15 512.0005 512" width="512pt" xmlns="http://www.w3.org/2000/svg"><path d="m176.375 150.050781-26.886719-13.945312c-3.953125-2.050781-6.429687-6.128907-6.429687-10.582031v-47.238282h.839844c7.855468 0 14.222656-6.367187 14.222656-14.222656s-6.367188-14.222656-14.222656-14.222656h-91.960938c-7.855469 0-14.222656 6.367187-14.222656 14.222656s6.367187 14.222656 14.222656 14.222656h.839844v47.238282c0 4.453124-2.480469 8.53125-6.429688 10.582031l-26.886718 13.945312c-7.347657 3.8125-11.960938 11.402344-11.960938 19.679688v288.632812c0 8.480469 6.875 15.355469 15.355469 15.355469h150.125c8.480469 0 15.355469-6.875 15.355469-15.355469v-288.632812c0-8.277344-4.613282-15.867188-11.960938-19.679688zm0 0" fill="#dfedff"/><path d="m176.375 150.050781-26.886719-13.945312c-3.953125-2.050781-6.429687-6.132813-6.429687-10.582031v-47.238282h.4375c7.660156 0 14.246094-5.886718 14.609375-13.535156.382812-8.167969-6.125-14.910156-14.207031-14.910156h-40.398438l-.4375 8.445312v47.238282c0 4.453124 2.476562 8.535156 6.429688 10.582031l26.886718 13.949219c7.347656 3.8125 11.960938 11.402343 11.960938 19.679687v244.714844c0 32.734375-26.539063 59.273437-59.273438 59.273437h-81.566406v4.644532c0 8.476562 6.875 15.355468 15.355469 15.355468h150.125c8.480469 0 15.355469-6.878906 15.355469-15.355468v-288.636719c0-8.277344-4.613282-15.867188-11.960938-19.679688zm0 0" fill="#b4e7fd"/><path d="m125.550781 49.839844h-55.265625l-6.554687-35.355469c-.671875-3.632813 2.117187-6.984375 5.8125-6.984375h56.75c3.695312 0 6.484375 3.351562 5.808593 6.984375zm0 0" fill="#fcb54c"/><path d="m396.960938 103.964844c-39.617188-39.613282-130.4375-13.019532-202.859376 59.402344-1.964843 1.964843-3.886718 3.941406-5.78125 5.929687.003907.144531.015626.289063.015626.433594v214.804687c44.082031-1.324218 100.765624-29.257812 149.21875-77.710937 72.421874-72.421875 99.019531-163.246094 59.40625-202.859375zm0 0" fill="#fafafa"/><path d="m396.960938 103.964844c-9.789063-9.789063-22.707032-15.527344-37.699219-17.539063 36.214843 40.808594 9.261719 129.433594-61.703125 200.398438-34.734375 34.734375-73.703125 58.921875-109.222656 70.324219v27.386718c44.078124-1.324218 100.765624-29.261718 149.21875-77.714844 72.421874-72.417968 99.019531-163.242187 59.40625-202.855468zm0 0" fill="#eee"/><path d="m358.199219 141.3125c-20.082031-20.078125-78.03125 5.316406-129.433594 56.71875-16.300781 16.300781-29.980469 33.257812-40.429687 49.457031v86.726563c26.769531 2.097656 72.046874-22.371094 113.140624-63.46875 51.40625-51.40625 76.800782-109.355469 56.722657-129.433594zm0 0" fill="#f5f5f5"/><path d="m358.199219 141.3125c-7.074219-7.074219-18.855469-8.496094-33.386719-5.132812 3.109375 26.5625-21.496094 72.730468-63.332031 114.566406-24.5 24.5-50.480469 43.085937-73.144531 53.660156v29.804688c26.765624 2.097656 72.042968-22.367188 113.140624-63.464844 51.40625-51.40625 76.800782-109.355469 56.722657-129.433594zm0 0" fill="#e0e0e0"/><path d="m446.507812 136.003906c-20.75-20.75-44.964843-35.917968-70.78125-45.523437 8.082032 3.035156 15.246094 7.496093 21.234376 13.484375 39.613281 39.613281 13.015624 130.4375-59.40625 202.859375-48.453126 48.449219-105.136719 76.386719-149.21875 77.710937v49.941406c77.480468 57.941407 187.761718 51.714844 258.171874-18.699218 77.257813-77.257813 77.257813-202.515625 0-279.773438zm0 0" fill="#ad7b64"/><path d="m446.507812 136.003906c-20.75-20.75-44.964843-35.917968-70.78125-45.523437 8.082032 3.035156 15.246094 7.496093 21.234376 13.484375 3.367187 3.367187 6.246093 7.113281 8.667968 11.179687.292969.289063.59375.570313.882813.863281 77.257812 77.257813 77.257812 202.515626 0 279.769532-56.175781 56.175781-137.726563 71.496094-207.75 45.972656 76.691406 49.984375 180.433593 41.339844 247.746093-25.972656 77.257813-77.257813 77.257813-202.515625 0-279.773438zm0 0" fill="#865b47"/><path d="m126.449219 226.523438c-26.183594 0-26.183594 9.996093-52.371094 9.996093-17.796875 0-23.503906-4.617187-33.550781-7.578125v211.75h114.78125v-208.164062c-7.566406-2.785156-13.996094-6.003906-28.859375-6.003906zm0 0" fill="#ffee58"/><path d="m126.449219 226.523438c-4.359375 0-7.988281.28125-11.136719.742187v152.570313c0 22.566406-18.292969 40.859374-40.855469 40.859374h-33.929687v19.996094h114.78125v-208.164062c-7.566406-2.785156-13.996094-6.003906-28.859375-6.003906zm0 0" fill="#ffee58"/><path d="m365.308594 334.570312c-2.929688 2.929688-2.929688 7.679688 0 10.605469l49.027344 49.027344c2.929687 2.929687 7.675781 2.929687 10.605468 0 2.925782-2.929687 2.925782-7.675781 0-10.605469l-49.027344-49.027344c-2.929687-2.925781-7.675781-2.925781-10.605468 0zm0 0"/><path d="m397.757812 283.949219c-1.441406 3.882812.542969 8.199219 4.425782 9.636719l65.019531 24.082031c3.910156 1.445312 8.207031-.570313 9.636719-4.429688 1.4375-3.882812-.542969-8.199219-4.429688-9.636719l-65.015625-24.078124c-3.886719-1.4375-8.199219.542968-9.636719 4.425781zm0 0"/><path d="m341.367188 446.578125c5.1875 0 8.851562-5.1875 7.03125-10.105469l-24.078126-65.019531c-1.4375-3.886719-5.757812-5.867187-9.636718-4.429687-3.886719 1.4375-5.867188 5.753906-4.429688 9.636718l24.078125 65.019532c1.121094 3.027343 3.988281 4.898437 7.035157 4.898437zm0 0"/><path d="m245.191406 398.101562-3.175781 39.527344c-.332031 4.128906 2.742187 7.746094 6.871094 8.078125 4.164062.328125 7.746093-2.773437 8.078125-6.875l3.179687-39.527343c.332031-4.128907-2.746093-7.742188-6.875-8.074219-4.128906-.328125-7.746093 2.742187-8.078125 6.871093zm0 0"/><path d="m429.433594 229.429688c.460937 0-2.136719.199218 40.136718-3.199219 4.128907-.332031 7.203126-3.949219 6.875-8.078125-.332031-4.128906-3.933593-7.207032-8.078124-6.875l-39.527344 3.179687c-4.125.332031-7.203125 3.949219-6.871094 8.074219.3125 3.925781 3.59375 6.898438 7.464844 6.898438zm0 0"/><path d="m451.8125 130.695312c-20.207031-20.203124-43.804688-35.644531-70.175781-45.964843-20.195313-8.742188-46.285157-8.953125-75.910157-.277344-38.363281 11.234375-78.632812 36.21875-113.8125 70.535156-2.773437-4.847656-6.910156-8.910156-12.085937-11.59375l-26.886719-13.945312c-1.472656-.765625-2.386718-2.269531-2.386718-3.925781v-40.785157c8.730468-2.816406 15.066406-11.019531 15.066406-20.675781 0-11.976562-9.746094-21.722656-21.722656-21.722656h-9.332032l4.910156-26.488282c1.527344-8.25-4.808593-15.851562-13.183593-15.851562h-56.75c-8.390625 0-14.710938 7.617188-13.183594 15.851562l4.90625 26.488282h-9.328125c-11.980469 0-21.722656 9.746094-21.722656 21.722656 0 9.65625 6.332031 17.859375 15.0625 20.675781v40.785157c0 1.65625-.914063 3.160156-2.386719 3.925781l-26.882813 13.945312c-9.875 5.121094-16.007812 15.214844-16.007812 26.335938v288.632812c0 12.605469 10.253906 22.855469 22.855469 22.855469h150.125c12.601562 0 22.855469-10.253906 22.855469-22.855469v-9.558593c29.757812 19.113281 63.898437 30.15625 99.601562 32.089843 4.097656.230469 7.667969-2.917969 7.894531-7.082031.222657-4.136719-2.949219-7.667969-7.082031-7.894531-36.382812-1.972657-71.015625-14.140625-100.414062-35.238281v-39.105469c21.304687-1.898438 44.949218-9.265625 68.894531-21.550781 65.703125-33.707032 128.304687-101.824219 150.242187-169.972657 1.265625-3.941406-.898437-8.167969-4.84375-9.4375-3.9375-1.269531-8.167968.898438-9.4375 4.839844-28.027344 87.089844-126.609375 173.25-204.855468 181.070313v-34.859376c53.609374-3.878906 138.949218-78.8125 167.675781-144.371093 12.039062-27.472657 12.035156-49.238281-.011719-61.285157-12.046875-12.046874-33.8125-12.050781-61.28125-.011718-39.351562 17.246094-79.671875 53.542968-106.382812 88.003906v-51.6875c31.03125-32.050781 71.71875-61.050781 114.105468-73.464844 24.511719-7.175781 45.917969-7.648437 62.460938-1.640625 1.707031.84375 10.710937 3.511719 19.257812 12.058594 11.988282 11.992187 17.484375 30.15625 15.890625 52.527344-.292969 4.132812 2.816407 7.722656 6.945313 8.015625 4.117187.296875 7.71875-2.816406 8.015625-6.945313 1.132812-15.90625-.886719-30.167969-5.859375-42.316406 49.4375 35.125 80.304687 91.910156 80.304687 155.34375 0 95.933594-70.46875 174.195313-161.34375 188.105469-4.09375.625-6.902343 4.453125-6.277343 8.546875.628906 4.105469 4.46875 6.90625 8.546874 6.277343 43.398438-6.640624 82.792969-26.609374 113.929688-57.742187 80.246094-80.242187 80.257812-210.125 0-290.382813zm-380.359375-115.695312h52.929687l-5.070312 27.339844h-42.789062zm101.527344 451.21875h-150.125c-4.332031 0-7.855469-3.523438-7.855469-7.855469v-288.632812c0-5.5 3.03125-10.488281 7.914062-13.023438l26.886719-13.945312c6.460938-3.351563 10.476563-9.957031 10.476563-17.238281v-47.238282c0-4.144531-3.355469-7.5-7.5-7.5h-.839844c-3.707031 0-6.722656-3.015625-6.722656-6.722656s3.015625-6.722656 6.722656-6.722656h91.960938c3.707031 0 6.722656 3.015625 6.722656 6.722656s-3.015625 6.722656-6.722656 6.722656h-.839844c-4.144532 0-7.5 3.355469-7.5 7.5v47.238282c0 7.28125 4.015625 13.886718 10.476562 17.238281l26.886719 13.945312c4.761719 2.472657 7.757813 7.285157 7.902344 12.625.019531 5.5625.011719 288.925781.011719 289.03125 0 4.332031-3.523438 7.855469-7.855469 7.855469zm61.085937-262.882812c51.726563-51.726563 104.140625-71.410157 118.828125-56.722657s-4.992187 67.101563-56.722656 118.828125c-34.769531 34.773438-74.578125 58.796875-100.335937 61.191406v-76.90625c10.28125-15.621093 23.460937-31.621093 38.230468-46.390624zm0 0"/><path d="m157.898438 225.488281c-.871094-.320312-1.726563-.648437-2.582032-.972656-6.746094-2.574219-14.386718-5.496094-28.867187-5.496094-14.476563 0-22.117188 2.917969-28.859375 5.496094-6.332032 2.417969-11.800782 4.503906-23.511719 4.503906-16.328125 0-20.695313-4.109375-31.433594-7.269531-4.804687-1.417969-9.617187 2.195312-9.617187 7.191406v86.238282c0 4.140624 3.355468 7.5 7.5 7.5 4.140625 0 7.5-3.359376 7.5-7.5v-75.59375c6.132812 2.253906 13.539062 4.433593 26.046875 4.433593 14.476562 0 22.121093-2.917969 28.863281-5.492187 6.332031-2.417969 11.800781-4.507813 23.511719-4.507813 10.367187 0 15.84375 1.636719 21.359375 3.691407v195.480468h-99.78125v-83.015625c0-4.144531-3.359375-7.5-7.5-7.5s-7.5 3.355469-7.5 7.5v90.515625c0 4.140625 3.359375 7.496094 7.5 7.496094h114.78125c4.140625 0 7.5-3.355469 7.5-7.496094v-208.164062c0-3.144532-1.960938-5.953125-4.910156-7.039063zm0 0"/></svg>