<svg width="1895" height="171" viewBox="0 0 1895 171" fill="none" xmlns="http://www.w3.org/2000/svg">
<mask id="mask0_219_123" style="mask-type:luminance" maskUnits="userSpaceOnUse" x="0" y="158" width="1895" height="13">
<path d="M0 158.771H1894.95V170.443H0V158.771Z" fill="white"/>
</mask>
<g mask="url(#mask0_219_123)">
<path d="M-12.4688 158.771H1894.95V233.568H-12.4688V158.771Z" fill="#2A431C"/>
</g>
<mask id="mask1_219_123" style="mask-type:luminance" maskUnits="userSpaceOnUse" x="0" y="0" width="218" height="171">
<path d="M0 0H217.474V170.443H0V0Z" fill="white"/>
</mask>
<g mask="url(#mask1_219_123)">
<path d="M212.385 156.271C210.49 158.036 210.365 159.427 211.25 161.703C212.891 166.005 210.615 169.542 206.068 170.177C204.927 170.302 203.661 170.302 202.526 170.302C172.438 170.302 142.224 170.302 112.135 170.302C111.5 170.302 110.745 170.302 110.109 170.302C102.271 170.302 94.4323 170.302 86.4688 170.302C77.6198 170.302 68.6459 170.302 59.7969 170.302C59.2865 170.302 58.7813 170.302 58.4063 170.302C33.625 170.302 8.71878 170.302 -16.0573 170.302C-19.0937 170.302 -21.875 169.797 -23.0104 166.51C-24.151 163.349 -23.5156 160.312 -20.8646 158.036C-20.1041 157.406 -18.9687 157.026 -18.9687 155.76C-22.8854 155.255 -27.4375 155.51 -28.4479 150.578C-29.7135 144.765 -23.7708 145.271 -20.6093 142.87C-22 141.854 -23.1406 141.099 -24.276 140.213C-29.4583 136.042 -30.2187 128.453 -25.9218 124.411C-22.2552 120.87 -22.2552 120.87 -27.1823 119.099C-27.4375 118.974 -27.6875 118.974 -27.9427 118.849C-31.9896 117.078 -35.276 114.547 -35.6562 109.87C-36.0312 105.573 -33.125 102.917 -29.7135 101.021C-28.1927 100.135 -26.6771 99.38 -25.1614 98.7446C-22.8854 97.7342 -20.7343 96.9738 -17.9531 95.8384C-19.8489 94.3228 -21.3698 93.3123 -22.7604 92.1717C-27.5625 87.9998 -27.5625 82.0571 -22.5052 78.5207C-19.0937 76.1144 -19.8489 74.979 -22.6302 72.9582C-25.9218 70.5519 -27.5625 67.1405 -27.0573 63.0936C-26.5521 59.4269 -23.2656 58.4165 -20.2291 57.5311C-18.2083 57.0259 -17.5781 56.1405 -17.9531 53.9946C-19.0937 46.9113 -15.1718 42.8696 -7.96872 43.1196C-2.28122 43.3748 2.65107 45.9009 7.96357 48.3019C4.04169 36.6717 5.81253 34.0207 17.6979 33.7655C17.8229 30.2238 15.5469 26.3071 18.8334 23.0207C22.5 19.229 25.9115 22.1352 29.5782 23.7759C28.5677 18.8488 27.4323 14.4217 28.4427 9.86962C29.3282 5.57275 31.7292 2.41129 36.0261 1.27587C40.3282 0.135249 43.2344 2.6665 45.5104 5.95296C46.2657 6.96337 46.7709 8.104 47.6563 9.61962C48.1615 8.479 48.5417 7.72379 49.0469 6.96337C51.1979 3.42171 53.9792 0.640458 58.4063 1.27587C62.9532 1.90608 65.4844 4.94254 66.4948 9.23942C67.3802 12.6509 67.125 16.1925 66.4948 19.7342C66.2448 20.8696 65.4844 22.1352 66.3698 23.0207C67.5052 24.0311 68.5157 22.6405 69.4011 22.2602C74.4584 20.2394 78.125 22.7655 77.875 28.203C77.7448 30.2238 77.2396 32.2498 76.8594 34.2707C87.3542 33.005 89.25 34.7759 88.4948 45.0155C88.2396 48.0519 90.0105 47.0415 91.4011 46.5363C93.5469 45.6509 95.698 44.7655 97.974 44.13C101.135 36.8019 106.823 31.4894 114.917 28.5832C122.88 25.8019 131.224 25.8019 139.568 26.8123C156.38 28.9634 167.505 41.9842 166.495 58.7967C166.24 62.2082 167.255 62.4634 170.036 61.9582C179.516 60.4425 184.573 66.005 182.047 75.3592C181.161 78.7707 182.422 79.2759 185.203 79.1509C196.839 78.3905 203.917 84.3332 207.708 94.703C211.88 105.828 211.5 116.193 202.271 124.917C201.896 125.297 201.26 125.802 201.766 126.687C203.156 127.062 204.677 127.318 206.193 127.698C209.224 128.583 212.005 129.719 214.031 132.5C218.833 138.948 217.948 151.083 212.385 156.271Z" fill="#2A431C"/>
</g>
<mask id="mask2_219_123" style="mask-type:luminance" maskUnits="userSpaceOnUse" x="1682" y="0" width="213" height="171">
<path d="M1682.81 0H1894.95V170.443H1682.81V0Z" fill="white"/>
</mask>
<g mask="url(#mask2_219_123)">
<path d="M1688.61 156.271C1690.51 158.036 1690.63 159.427 1689.74 161.703C1688.1 166.005 1690.38 169.542 1694.93 170.177C1696.07 170.302 1697.33 170.302 1698.47 170.302C1728.56 170.302 1758.77 170.302 1788.86 170.302C1789.49 170.302 1790.25 170.302 1790.89 170.302C1798.72 170.302 1806.56 170.302 1814.53 170.302C1823.38 170.302 1832.35 170.302 1841.2 170.302C1841.7 170.302 1842.21 170.302 1842.59 170.302C1867.37 170.302 1892.28 170.302 1917.05 170.302C1920.09 170.302 1922.87 169.797 1924.01 166.51C1925.15 163.349 1924.51 160.312 1921.86 158.036C1921.1 157.406 1919.96 157.026 1919.96 155.76C1923.88 155.255 1928.43 155.51 1929.44 150.578C1930.71 144.765 1924.77 145.271 1921.6 142.87C1922.99 141.854 1924.13 141.099 1925.27 140.213C1930.45 136.042 1931.21 128.453 1926.91 124.411C1923.25 120.87 1923.25 120.87 1928.18 119.099C1928.43 118.974 1928.68 118.974 1928.94 118.849C1932.98 117.078 1936.27 114.547 1936.65 109.87C1937.03 105.573 1934.12 102.917 1930.71 101.021C1929.19 100.135 1927.67 99.38 1926.16 98.7446C1923.88 97.7342 1921.73 96.9738 1918.95 95.8384C1920.84 94.3228 1922.36 93.3123 1923.76 92.1717C1928.56 87.9998 1928.56 82.0571 1923.5 78.5207C1920.09 76.1144 1920.84 74.979 1923.63 72.9582C1926.92 70.5519 1928.56 67.1405 1928.05 63.0936C1927.55 59.4269 1924.26 58.4165 1921.22 57.5311C1919.2 57.0259 1918.57 56.1405 1918.95 53.9946C1920.09 46.9113 1916.17 42.8696 1908.96 43.1196C1903.27 43.3748 1898.34 45.9009 1893.03 48.3019C1896.95 36.6717 1895.18 34.0207 1883.3 33.7655C1883.17 30.2238 1885.45 26.3071 1882.16 23.0207C1878.49 19.229 1875.08 22.1352 1871.42 23.7759C1872.43 18.8488 1873.56 14.4217 1872.55 9.86962C1871.67 5.57275 1869.27 2.41129 1864.97 1.27587C1860.67 0.135249 1857.76 2.6665 1855.48 5.95296C1854.73 6.96337 1854.22 8.104 1853.34 9.61962C1852.83 8.479 1852.45 7.72379 1851.95 6.96337C1849.8 3.42171 1847.02 0.640458 1842.59 1.27587C1838.04 1.90608 1835.51 4.94254 1834.5 9.23942C1833.61 12.6509 1833.87 16.1925 1834.5 19.7342C1834.75 20.8696 1835.51 22.1352 1834.63 23.0207C1833.49 24.0311 1832.48 22.6405 1831.59 22.2602C1826.54 20.2394 1822.87 22.7655 1823.12 28.203C1823.25 30.2238 1823.76 32.2498 1824.13 34.2707C1813.64 33.005 1811.74 34.7759 1812.5 45.0155C1812.76 48.0519 1810.98 47.0415 1809.59 46.5363C1807.44 45.6509 1805.3 44.7655 1803.02 44.13C1799.86 36.8019 1794.17 31.4894 1786.08 28.5832C1778.11 25.8019 1769.77 25.8019 1761.43 26.8123C1744.61 28.9634 1733.49 41.9842 1734.5 58.7967C1734.75 62.2082 1733.74 62.4634 1730.96 61.9582C1721.48 60.4425 1716.42 66.005 1718.95 75.3592C1719.83 78.7707 1718.57 79.2759 1715.79 79.1509C1704.16 78.3905 1697.08 84.3332 1693.29 94.703C1689.11 105.828 1689.49 116.193 1698.72 124.917C1699.1 125.297 1699.73 125.802 1699.23 126.687C1697.84 127.062 1696.32 127.318 1694.8 127.698C1691.77 128.583 1688.99 129.719 1686.96 132.5C1682.16 138.948 1683.05 151.083 1688.61 156.271Z" fill="#2A431C"/>
</g>
<mask id="mask3_219_123" style="mask-type:luminance" maskUnits="userSpaceOnUse" x="189" y="70" width="337" height="101">
<path d="M189.474 70.7085H525.474V170.443H189.474V70.7085Z" fill="white"/>
</mask>
<g mask="url(#mask3_219_123)">
<path d="M193.292 170.255C191.125 167.531 189.807 163.766 189.729 158.938C189.641 153.547 192.313 149.188 197.354 145.875C194.161 140.933 193.031 136.427 193.849 132.328C195.193 125.604 200.797 121.552 210.792 120.193L206.469 109.787C211.536 113.25 214.573 114.594 215.568 113.818C218.24 113.5 218.214 110.292 215.49 104.188C215.828 103.636 218.484 105.646 223.464 110.214C227.865 104.808 232.526 102.979 237.615 103.469C242.245 103.917 247.938 109.854 254.63 122.537C255.172 122.776 255.948 122.995 256.786 122.63C261.755 120.469 265.464 119.229 268.151 119.433C269.573 119.146 273.5 120.516 279.932 123.547L269.375 96.4273C271.995 101.542 275.339 104.735 279.411 106.011C280.818 99.6929 283.714 95.9273 288.094 94.7034C289.208 87.4377 291.766 81.9169 295.896 78.3023C301.464 73.4273 308.339 71.2294 316.365 70.9534C324.208 70.6825 332.208 73.87 340.266 81.2659C341.448 82.3544 343.734 79.5107 347.255 72.6044C347.641 77.1565 348.359 79.4429 349.411 79.469C356.568 76.594 361.115 75.9013 363.057 77.3909C364.422 77.4586 365.927 80.9586 367.568 87.8909C372.969 86.6565 376.776 87.9169 378.974 91.6669L389.781 117.073C391.583 111.38 395 108.042 400.021 107.063C397.016 95.2294 398.708 85.5263 406.594 79.8492C414.776 73.9638 423.688 75.1148 431.995 81.2867C433.052 81.1565 434.62 78.6357 436.703 73.7242L440.948 82.1825L448.464 76.745C446.344 83.2554 445.635 87.9377 446.49 90.7398C446.776 91.6773 447.276 92.3127 447.88 92.3023C451.417 92.2398 454.448 92.6877 456.99 94.0107C459.797 95.469 461.729 97.1096 462.792 98.9429C464.568 100.104 465.703 107.943 466.198 122.459C466.516 122.797 466.995 122.943 467.552 122.683C471.078 121.037 473.594 120.052 475.161 119.771C476.708 119.495 478.474 119.302 480.479 119.5C485.036 119.948 488.932 122.047 492.927 124.584C498.76 128.287 504.224 138.146 508.656 155.276C511.563 142.469 520.464 148.068 520.464 148.068C526.349 153.094 527.099 164.255 522.021 170.412L193.292 170.255Z" fill="#2A431C"/>
</g>
<mask id="mask4_219_123" style="mask-type:luminance" maskUnits="userSpaceOnUse" x="1394" y="70" width="339" height="101">
<path d="M1394.81 70.7085H1732.14V170.443H1394.81V70.7085Z" fill="white"/>
</mask>
<g mask="url(#mask4_219_123)">
<path d="M1398.94 170.255C1396.77 167.531 1395.45 163.766 1395.38 158.938C1395.29 153.547 1397.95 149.188 1403 145.875C1399.81 140.933 1398.68 136.427 1399.49 132.328C1400.83 125.604 1406.44 121.552 1416.44 120.193L1412.11 109.787C1417.18 113.25 1420.22 114.594 1421.21 113.818C1423.89 113.5 1423.86 110.292 1421.14 104.188C1421.47 103.636 1424.13 105.646 1429.11 110.214C1433.51 104.808 1438.17 102.979 1443.26 103.469C1447.89 103.917 1453.58 109.854 1460.28 122.537C1460.82 122.776 1461.59 122.995 1462.43 122.63C1467.4 120.469 1471.11 119.229 1473.8 119.433C1475.22 119.146 1479.15 120.516 1485.58 123.547L1475.02 96.4273C1477.64 101.542 1480.98 104.735 1485.06 106.011C1486.46 99.6929 1489.36 95.9273 1493.74 94.7034C1494.85 87.4377 1497.41 81.9169 1501.54 78.3023C1507.11 73.4273 1513.98 71.2294 1522.01 70.9534C1529.85 70.6825 1537.85 73.87 1545.91 81.2659C1547.09 82.3544 1549.38 79.5107 1552.9 72.6044C1553.29 77.1565 1554.01 79.4429 1555.06 79.469C1562.21 76.594 1566.76 75.9013 1568.7 77.3909C1570.07 77.4586 1571.57 80.9586 1573.21 87.8909C1578.61 86.6565 1582.42 87.9169 1584.62 91.6669L1595.43 117.073C1597.23 111.38 1600.65 108.042 1605.67 107.063C1602.66 95.2294 1604.35 85.5263 1612.23 79.8492C1620.42 73.9638 1629.33 75.1148 1637.64 81.2867C1638.7 81.1565 1640.27 78.6357 1642.35 73.7242L1646.59 82.1825L1654.11 76.745C1651.99 83.2554 1651.28 87.9377 1652.14 90.7398C1652.42 91.6773 1652.92 92.3127 1653.53 92.3023C1657.06 92.2398 1660.09 92.6877 1662.64 94.0107C1665.44 95.469 1667.38 97.1096 1668.44 98.9429C1670.21 100.104 1671.35 107.943 1671.84 122.459C1672.16 122.797 1672.64 122.943 1673.2 122.683C1676.72 121.037 1679.24 120.052 1680.81 119.771C1682.35 119.495 1684.12 119.302 1686.13 119.5C1690.68 119.948 1694.58 122.047 1698.57 124.584C1704.41 128.287 1709.87 138.146 1714.3 155.276C1717.21 142.469 1726.11 148.068 1726.11 148.068C1731.99 153.094 1732.74 164.255 1727.67 170.412L1398.94 170.255Z" fill="#2A431C"/>
</g>
<mask id="mask5_219_123" style="mask-type:luminance" maskUnits="userSpaceOnUse" x="1342" y="20" width="105" height="151">
<path d="M1342.35 20.2134H1446.08V170.443H1342.35V20.2134Z" fill="white"/>
</mask>
<g mask="url(#mask5_219_123)">
<path d="M1438.47 58.7865C1442.14 60.4792 1444.89 63.0521 1446.19 66.3177C1445.1 60.3594 1439.32 56.0052 1431.97 54.2188C1427.58 53.1042 1422.66 52.7708 1417.57 53.0417C1415.82 53.1302 1414.04 53.3125 1412.22 53.5573C1415.19 52.2552 1418.91 52.0104 1422.66 52.7708C1420.11 51.6198 1417.33 50.8646 1414.67 50.6823C1414.73 50.651 1414.76 50.651 1414.82 50.6198C1415.06 50.5 1415.31 50.3802 1415.55 50.2865C1415.67 50.2292 1415.82 50.1667 1415.94 50.1354C1416.09 50.1094 1416.21 50.0781 1416.36 50.0469C1418.76 49.5938 1424.32 50.7448 1424.35 50.6198C1424.38 50.5625 1424.35 50.4688 1424.29 50.4115C1422.96 49.0781 1421.08 48.0521 1419.21 47.4479C1421.81 47.2969 1424.53 47.8073 1427.28 48.625C1425.53 47.75 1423.66 46.9635 1421.72 46.4167C1424.56 46.3854 1427.07 46.4479 1430.16 46.9948C1428.43 45.1458 1425.8 44.0885 1423.38 43.6042C1424.47 43.0885 1426.01 43.2135 1427.89 43.8177C1428.43 44 1429.07 44.1771 1429.64 44.3594C1430.04 44.5104 1431.73 44.875 1431.55 44.7552C1431.19 44.5104 1430.28 43.875 1429.94 43.6667C1429.4 43.3333 1428.8 42.9687 1428.25 42.6667L1427.92 42.4844C1430.58 42.125 1433.48 42.2448 1436.51 42.9115C1434.94 41.974 1433.21 41.1875 1431.43 40.4896C1434.24 40.0677 1437.32 40.4583 1440.35 41.5469C1439.02 40.6719 1437.6 39.8542 1436.05 39.2188C1436.08 39.2188 1436.11 39.2188 1436.15 39.2188C1436.66 39.1875 1437.2 39.1875 1437.72 39.1563C1438.26 39.1563 1438.81 39.1563 1439.35 39.1563C1439.9 39.1563 1440.47 39.1875 1441.05 39.1875C1440.53 38.8854 1439.98 38.5833 1439.41 38.3125C1438.87 38.0677 1438.29 37.7969 1437.72 37.5885C1437.15 37.375 1436.57 37.1615 1435.96 36.9792C1424.38 33.474 1413.67 37.7969 1408.08 45.1146C1404.99 32.2604 1397.64 23.25 1388.93 20.375C1391.23 22.0104 1393.35 23.974 1395.19 26.4271C1394.86 26.151 1394.47 25.9115 1394.1 25.6667C1393.53 25.3073 1392.93 25.0365 1392.32 24.8229C1391.32 24.4896 1390.32 24.3073 1389.3 24.3073C1389.23 24.3073 1389.17 24.401 1389.17 24.4896C1389.17 24.5781 1390.99 25.7917 1391.78 26.4844C1392.17 26.849 1392.56 27.2135 1392.93 27.6354L1393.47 28.2396C1393.65 28.4531 1393.83 28.6615 1393.98 28.875C1394.22 29.1771 1394.47 29.5417 1394.68 29.901C1393.23 29.4792 1391.68 29.4219 1390.11 30.1458C1392.47 31.625 1394.71 32.8698 1397.01 34.4427C1395.19 34.3177 1393.29 34.9844 1391.51 36.0729C1393.74 35.8021 1395.92 36.375 1397.64 38.0104C1396.4 38.0104 1394.44 38.4323 1394.44 38.5833C1394.44 38.6771 1394.53 38.7969 1394.53 38.7969C1395.77 39.401 1396.85 40.276 1397.94 41.2448C1398.7 41.974 1399.58 42.6667 1400.28 43.5156C1400.24 43.5156 1400.24 43.5156 1400.21 43.5156C1397.64 40.9115 1394.62 39.25 1390.72 37.7396C1384.82 35.3177 1378.1 34.9531 1372.36 37.5885C1371.51 37.9479 1370.66 38.4323 1369.88 38.9479C1369.48 39.1875 1369.09 39.4896 1368.73 39.7656C1368.61 39.8229 1368.58 39.974 1368.61 40.125C1368.67 40.276 1373.39 38.9167 1375.59 38.7969C1373.87 39.7031 1372.33 41.125 1371.21 42.7604C1371.18 42.8177 1371.15 42.9115 1371.21 42.9688C1371.27 43.0625 1373.75 41.7604 1374.93 41.3958C1376.29 40.974 1377.65 40.7604 1379.04 40.7917C1377.56 41.6667 1376.14 42.8802 1375.29 44.4531C1375.26 44.5417 1375.23 44.6354 1375.29 44.724C1375.56 44.7865 1379.1 43.2708 1380.46 43.3333C1380.28 43.5469 1380.1 43.7552 1379.95 43.9688L1379.31 44.8125C1379.04 45.2396 1378.74 45.724 1378.47 46.1771C1378.32 46.4792 1377.89 47.2656 1377.74 47.5677C1377.98 47.3229 1378.59 46.75 1378.83 46.5104C1379.19 46.2083 1379.61 45.875 1379.98 45.5729L1380.8 45.026C1382.64 43.9688 1384.24 43.6667 1385.45 43.6979C1383.43 44.8125 1381.61 46.4479 1380.19 48.2917C1382.04 46.9948 1384.03 46.0833 1386.18 45.6615C1385.03 46.4792 1383.04 48.6563 1383.06 48.7448C1383.16 48.8698 1386.97 47.3854 1388.54 47.2656C1387.12 48.0521 1385.82 49.0469 1384.67 50.1354C1386.6 49.0469 1388.66 48.3542 1390.74 48.0521C1389.75 48.9271 1388.93 50.0469 1388.45 51.2292C1388.39 51.2292 1388.36 51.2292 1388.3 51.2552C1384 52.2865 1379.86 54.0417 1376.2 56.4583C1370.94 60.0573 1366.7 64.9896 1363.31 70.2188C1363.26 70.3438 1363.26 70.4635 1363.34 70.5833C1363.46 70.7031 1365.1 69.2552 1365.8 68.6198C1365.49 69.1927 1365.22 69.7656 1365.04 70.3698C1365.01 70.4323 1365.1 70.5208 1365.16 70.4635C1366.76 69.1042 1368.15 67.8021 1369.57 66.3177C1368.76 68.1615 1368.28 70.2188 1368.15 72.1875C1369.3 69.1302 1371.27 66.4115 1373.96 64.5938C1373.15 66.5313 1372.69 68.7396 1372.81 70.8281C1372.87 70.8542 1374.59 68.375 1375.23 67.349C1375.86 66.2292 1377.23 63.901 1377.86 62.8125C1377.1 64.9271 1376.71 67.2865 1377.26 69.4948C1377.26 69.4948 1377.86 66.7135 1378.41 65.4427C1378.65 64.8073 1378.95 64.2031 1379.31 63.625C1379.65 63.0208 1380.01 62.4792 1380.4 61.9323C1381.04 61.026 1381.89 60.3021 1382.61 59.4531C1382.61 59.4531 1382.61 59.4531 1382.61 59.4844C1380.98 61.9948 1379.86 64.9271 1379.46 67.8333C1380.1 66.2604 1380.92 64.8073 1381.89 63.5052C1381.85 64.776 1382.04 65.9844 1382.28 67.1979C1382.31 67.2865 1382.34 67.349 1382.43 67.3802C1382.55 67.4375 1383.76 64.776 1384.36 63.7188C1384.94 62.6875 1385.57 61.75 1386.27 61.0573C1385.55 62.599 1385.36 64.4115 1385.55 66.0781C1385.85 63.4479 1387.3 61.1146 1389.57 59.7865C1388.87 61.5729 1388.63 63.7188 1389.17 65.5C1388.11 66.8646 1387.21 68.3438 1386.42 69.9479C1386.18 70.4323 1385.97 70.9479 1385.72 71.4583C1385.52 71.974 1385.3 72.4896 1385.12 73.0052C1383.61 77.1146 1382.79 81.6823 1382.58 86.3438C1382.55 86.6719 1382.55 87.0365 1382.55 87.3698C1382.37 87.5208 1382.19 87.7031 1382.01 87.8542C1379.92 89.9115 1378.38 92.6927 1377.5 95.6563C1377.59 92.9948 1378.65 90.3958 1380.43 88.3698C1378.89 89.3646 1377.53 90.6979 1376.56 92.2708C1376.56 92.2396 1376.56 92.1771 1376.56 92.151C1376.56 91.9375 1376.56 91.724 1376.59 91.5156C1376.59 91.3906 1376.62 91.3021 1376.62 91.1823C1376.65 91.0885 1376.68 90.9688 1376.71 90.8802C1377.23 89.1563 1379.74 86.25 1379.68 86.1927C1379.65 86.1302 1379.59 86.1302 1379.53 86.1302C1378.29 86.25 1377.02 86.9167 1376.05 87.7656C1376.8 86.0417 1378.02 84.6198 1379.41 83.349C1378.29 83.9844 1377.2 84.7396 1376.23 85.6458C1377.14 83.8333 1377.98 82.3177 1379.31 80.6875C1377.62 80.8073 1376.11 81.8958 1375.02 83.1667C1375.08 82.2292 1375.63 81.3229 1376.59 80.4427C1376.9 80.2031 1377.2 79.901 1377.5 79.625C1377.71 79.474 1378.5 78.599 1378.38 78.6302C1378.1 78.7188 1377.44 78.9635 1377.17 79.0521C1376.78 79.2344 1376.38 79.4167 1376.02 79.599L1375.81 79.7188C1376.44 77.875 1377.47 76.1198 1378.86 74.5469C1377.77 75.0625 1376.71 75.6927 1375.71 76.4531C1376.35 74.4844 1377.62 72.7604 1379.26 71.4323C1378.29 71.7917 1377.32 72.276 1376.44 72.8802C1376.44 72.8542 1376.47 72.8542 1376.47 72.8229C1376.62 72.4896 1376.8 72.1563 1376.95 71.7917C1377.14 71.4583 1377.32 71.1302 1377.47 70.7656C1377.65 70.4323 1377.86 70.099 1378.04 69.7344C1377.68 69.9167 1377.32 70.099 1376.98 70.2813C1376.65 70.4948 1376.32 70.7031 1375.99 70.9479C1375.66 71.1875 1375.35 71.4583 1375.05 71.7031C1368.67 77.5417 1368.21 87.4896 1371.72 95.0833C1368.48 93.3281 1365.16 92.8125 1360.93 92.7552C1355.18 92.5729 1349.25 94.3281 1345.02 98.2604C1344.38 98.8333 1343.78 99.4688 1343.23 100.135C1342.96 100.469 1342.72 100.797 1342.44 101.13C1342.35 101.224 1342.39 101.375 1342.44 101.464C1342.54 101.583 1346.26 99.0156 1348.13 98.2292C1346.89 99.5 1345.92 101.13 1345.41 102.823C1345.38 102.885 1345.41 102.948 1345.47 103.005C1345.53 103.068 1347.31 101.25 1348.25 100.589C1349.31 99.8333 1350.43 99.224 1351.67 98.8333C1350.61 100.01 1349.73 101.432 1349.4 102.948C1349.37 103.005 1349.4 103.099 1349.46 103.156C1349.73 103.13 1352.36 100.828 1353.55 100.438C1353.45 100.646 1353.36 100.891 1353.27 101.099L1352.97 102.01C1352.85 102.432 1352.73 102.917 1352.61 103.37C1352.55 103.672 1352.43 104.427 1352.36 104.729C1352.52 104.458 1352.88 103.792 1353.03 103.552C1353.27 103.188 1353.55 102.797 1353.79 102.432L1354.33 101.734C1355.63 100.313 1356.96 99.5573 1358.02 99.224C1356.57 100.771 1355.45 102.646 1354.72 104.609C1355.96 102.974 1357.45 101.615 1359.2 100.646C1358.42 101.646 1357.3 104.036 1357.35 104.125C1357.48 104.219 1360.35 101.828 1361.68 101.224C1360.68 102.313 1359.81 103.49 1359.11 104.76C1360.5 103.281 1362.07 102.099 1363.8 101.193C1363.8 101.193 1363.8 101.193 1363.8 101.224C1363.16 102.25 1362.77 103.401 1362.68 104.521C1364.34 102.193 1367.36 101.25 1370.06 101.708C1369.72 101.917 1369.42 102.161 1369.12 102.401C1366.19 103.609 1363.61 105.516 1361.92 108.151C1360.17 111.021 1358.9 114.198 1358.32 117.583C1357.54 122.484 1358.14 127.656 1359.41 132.589C1359.44 132.677 1359.53 132.771 1359.66 132.771C1359.78 132.771 1359.84 131.047 1359.84 130.286C1359.99 130.771 1360.2 131.255 1360.47 131.74C1360.5 131.802 1360.59 131.802 1360.59 131.708C1360.65 130.047 1360.65 128.536 1360.59 126.932C1361.23 128.474 1362.19 129.953 1363.31 131.198C1362.1 128.745 1361.59 126.083 1362.02 123.604C1362.71 125.208 1363.8 126.781 1365.1 127.958C1365.16 127.958 1364.61 125.568 1364.34 124.604C1364.04 123.604 1363.38 121.484 1363.1 120.49C1363.95 122.151 1365.16 123.786 1366.76 124.813C1366.76 124.813 1365.43 122.818 1364.98 121.792C1364.73 121.276 1364.55 120.76 1364.38 120.219C1364.19 119.703 1364.07 119.156 1363.95 118.615C1363.77 117.734 1363.8 116.859 1363.71 115.984C1364.28 118.344 1365.43 120.698 1366.94 122.635C1366.34 121.365 1365.95 120.068 1365.7 118.766C1366.46 119.552 1367.28 120.188 1368.13 120.792C1368.18 120.823 1368.24 120.854 1368.33 120.823C1368.46 120.792 1367.52 118.583 1367.24 117.615C1366.94 116.677 1366.73 115.802 1366.7 115.016C1367.21 116.313 1368.21 117.526 1369.3 118.401C1367.91 116.646 1367.31 114.5 1367.76 112.505C1368.46 113.953 1369.6 115.375 1370.97 116.161C1369.97 114.589 1369.82 112.807 1370.21 111.234C1370.84 112.474 1371.69 113.594 1372.63 114.531C1372.78 114.682 1373.02 114.531 1372.93 114.349C1372.42 113.109 1371.99 111.87 1371.88 110.688C1372.36 111.568 1372.93 112.385 1373.6 113.109C1373.17 111.474 1373.11 109.932 1373.45 108.479C1373.66 109.359 1373.96 110.203 1374.29 110.99C1374.47 108.026 1375.44 105.396 1377.2 103.25C1377.26 103.188 1377.32 103.13 1377.35 103.068C1384.97 125.661 1391.44 144.172 1391.38 170.214C1391.38 170.214 1392.8 170.271 1396.92 170.214C1396.53 144.323 1389.54 126.63 1379.19 101.797C1379.22 101.797 1379.22 101.797 1379.26 101.828C1379.41 101.885 1379.56 101.979 1379.71 102.068L1380.16 102.37C1380.43 102.583 1380.8 102.885 1381.04 103.13C1381.16 103.25 1381.34 103.432 1381.46 103.552C1382.04 104.125 1382.52 104.792 1383.06 105.484C1383.13 105.578 1383.24 105.516 1383.19 105.427C1382.79 104.427 1382.28 103.37 1381.64 102.464C1381.58 102.401 1381.55 102.313 1381.49 102.25C1382.94 102.917 1384.24 104.005 1385.33 105.396C1384.91 103.792 1384.18 102.219 1383.21 100.828C1383.76 101.161 1384.28 101.583 1384.79 102.068C1384.94 102.25 1385.12 102.401 1385.27 102.583C1385.42 102.766 1385.57 102.948 1385.72 103.156C1385.88 103.339 1386.03 103.552 1386.18 103.734L1386.64 104.339C1386.72 104.458 1386.88 104.37 1386.81 104.245C1386.66 103.76 1386.51 103.25 1386.3 102.766C1386.21 102.521 1386.09 102.281 1385.97 102.036C1385.85 101.797 1385.7 101.557 1385.57 101.313C1385.52 101.224 1385.45 101.099 1385.4 101.01C1386.54 101.281 1387.6 101.828 1388.54 102.823C1389.15 103.458 1389.69 104.245 1390.11 105.063C1389.96 104.609 1389.84 104.156 1389.63 103.703C1389.02 102.281 1388.06 101.01 1386.84 100.104C1388.99 101.375 1390.84 103.339 1392.29 105.609C1392.02 104.37 1391.63 103.099 1391.08 101.885C1392.08 102.885 1392.95 104.036 1393.8 105.182C1393.92 105.333 1393.89 103.734 1393.71 103.099C1394.41 103.885 1395.89 106.151 1395.89 105.943C1395.92 105.333 1395.86 104.672 1395.74 104.036C1397.25 105.125 1398.64 106.396 1399.73 108.12C1399.46 106.635 1398.85 105.063 1398.1 103.672C1400.28 104.911 1402.09 106.969 1403.42 109.359C1403.06 108.089 1402.57 106.818 1401.91 105.609C1403.18 106.484 1405.81 108.302 1406.17 108.422C1404.9 128.625 1401.91 150.099 1398.76 170.214H1405.99C1408.32 149.703 1410.53 128.688 1410.89 107.906C1411.07 97.5313 1410.77 87.1302 1409.98 76.8125C1409.62 72.0052 1409.14 67.224 1408.56 62.4479C1409.95 64.474 1410.56 67.1354 1410.22 69.526C1411.07 67.6198 1411.46 65.4115 1411.16 63.2969C1413.34 65.2292 1414.7 68.375 1413.92 71.3698C1414.76 70.5208 1415.43 69.4063 1415.85 68.1354C1416.3 70.1927 1416.43 72.3385 1416.18 74.4844C1416.73 73.0313 1417.12 71.4896 1417.3 69.9167C1417.76 71.4323 1417.72 75.4219 1417.82 75.4844C1417.94 75.5417 1418.09 75.4844 1418.15 75.3646C1418.72 74.1823 1419.21 72.9115 1419.48 71.5833C1419.88 73.7292 1419.78 75.875 1419.3 78.0521C1420.39 76.1198 1421.15 73.8802 1421.42 71.6406C1421.6 71.9427 1421.81 72.2188 1421.99 72.4896C1422.17 73.7604 1422.11 75.0625 1421.9 76.4219L1421.72 77.3594C1421.6 77.8125 1421.45 78.2969 1421.32 78.75C1421.2 79.0521 1420.93 79.8073 1420.81 80.1094C1421.02 79.8698 1421.57 79.2031 1421.75 78.9635C1422.02 78.5677 1422.35 78.1458 1422.63 77.724L1423.14 76.8438C1423.26 76.6302 1423.38 76.3906 1423.51 76.1771C1424.02 77.4167 1423.93 81.1094 1423.98 81.4115C1424.08 81.5 1424.23 81.474 1424.32 81.3802C1425.35 80.0521 1425.86 78.3594 1426.14 76.6615C1427.13 79.1406 1427.31 81.8073 1426.86 84.4688C1426.86 84.526 1426.89 84.6198 1426.95 84.6458C1427.04 84.7083 1428.46 82.1979 1428.8 80.8385C1428.92 80.2917 1429.01 79.75 1429.07 79.1719C1429.73 81.2917 1430.13 86.099 1430.28 86.1302C1430.43 86.1615 1430.58 86.0677 1430.61 85.9167C1431.52 82.349 1431.36 78.4479 1430.31 74.7865C1428.98 70.1927 1426.26 66.1979 1422.96 62.7813C1423.38 61.901 1423.63 60.9635 1423.59 60.026V60C1424.86 61.2969 1425.83 62.8125 1426.34 64.5365C1426.44 62.6875 1426.1 60.9063 1425.38 59.2135C1427.13 60.5104 1428.07 62.3281 1428.61 64.2917C1428.7 62.7813 1428.58 61.2656 1428.01 59.875C1429.82 61.3906 1430.85 63.4167 1431.19 65.6563C1431.76 63.3542 1431.67 60.9948 1430.79 59C1432.24 60.0885 1433.09 61.5417 1433.45 63.2031L1433.6 63.9896C1433.64 64.3854 1433.67 64.8073 1433.7 65.1979C1433.7 65.474 1433.64 66.1979 1433.64 66.4688C1433.79 66.1979 1434.12 65.4427 1434.27 65.1719C1434.42 64.7448 1434.64 64.2604 1434.79 63.8385L1435.03 62.9323C1435.15 62.4167 1435.24 61.901 1435.27 61.3906C1436.6 62.5677 1437.6 63.9896 1437.75 65.7448C1438.23 64.1094 1437.96 62.4792 1437.35 61.0573C1440.23 62.5365 1442.1 64.8698 1442.32 67.7708C1442.98 64.1719 1441.29 61.1771 1438.47 58.7865ZM1388.48 51.2552C1390.99 49.349 1394.44 49.5052 1397.07 51.0156C1396.92 51.0469 1396.77 51.1042 1396.58 51.1354C1393.92 50.6823 1391.17 50.651 1388.48 51.2552ZM1393.08 60.6354C1392.93 61.0573 1392.8 61.4792 1392.68 61.9323C1392.32 62.2344 1391.96 62.5365 1391.59 62.8698C1390.74 63.6563 1389.96 64.5365 1389.2 65.474C1389.75 63.2969 1391.26 61.6615 1393.08 60.6354ZM1389.75 76.5417C1389.96 78.3281 1390.35 80.1719 1390.99 81.776C1390.11 82.1354 1389.27 82.5625 1388.42 83.0469C1388.51 80.7135 1388.9 78.4792 1389.75 76.5417ZM1387.54 80.9271C1387.63 81.7135 1387.75 82.5313 1387.93 83.3177C1387.39 83.651 1386.84 83.9844 1386.33 84.3438C1386.76 83.1667 1387.24 81.8073 1387.54 80.9271ZM1383.82 86.2813C1384.21 85.0729 1384.64 83.8906 1385.06 82.7135C1385.09 83.5313 1385.18 84.3438 1385.27 85.1302C1384.76 85.4948 1384.28 85.8594 1383.82 86.2813ZM1406.14 107.906C1406.14 108.12 1406.11 108.328 1406.11 108.51C1405.66 107.542 1405.15 106.635 1404.6 105.729C1405.15 106.094 1405.69 106.484 1406.2 106.849C1406.17 107.208 1406.17 107.542 1406.14 107.906ZM1406.29 104.729C1404.33 102.521 1402.12 100.589 1399.76 98.9844C1399.36 98.7135 1398.94 98.4688 1398.55 98.1979C1398.13 97.9583 1397.7 97.7135 1397.31 97.5C1394.95 96.2604 1392.41 95.4479 1389.93 95.1719C1388.42 94.9896 1386.94 95.0208 1385.48 95.2344C1385.33 95.2656 1385.18 95.2917 1385.03 95.3229C1386.69 94.3542 1388.75 94.026 1390.59 94.7188C1389.96 93.875 1389.05 93.2083 1388.03 92.724C1389.81 92.5104 1391.63 92.5729 1393.44 92.9948C1392.26 92.3906 1390.99 91.9063 1389.66 91.6042C1390.99 91.3646 1394.34 91.724 1394.44 91.6354C1394.49 91.5417 1394.47 91.3906 1394.38 91.3333C1393.44 90.6979 1392.38 90.1823 1391.26 89.8177C1393.1 89.6667 1394.92 89.9427 1396.7 90.5469C1395.16 89.3958 1393.32 88.5208 1391.44 88.0938C1391.71 87.974 1391.96 87.7917 1392.23 87.6719C1393.32 87.6094 1394.44 87.7917 1395.56 88.0938L1396.34 88.3385C1396.7 88.4896 1397.13 88.6719 1397.49 88.8229C1397.73 88.9427 1398.37 89.276 1398.61 89.3958C1398.4 89.1823 1397.92 88.6406 1397.73 88.4583C1397.43 88.1875 1397.1 87.8542 1396.77 87.5833L1396.07 87.0365C1395.89 86.9167 1395.71 86.7969 1395.53 86.6719C1396.61 86.3438 1399.73 86.7344 1400 86.7031C1400.09 86.6146 1400.06 86.4948 1400 86.401C1398.97 85.375 1397.55 84.7396 1396.16 84.375C1398.34 83.7083 1400.61 83.8021 1402.84 84.4375C1402.91 84.4375 1402.96 84.4375 1402.99 84.375C1403.06 84.3125 1401.06 82.8333 1399.94 82.4115C1399.49 82.2604 1399.04 82.1094 1398.55 82.0156C1400.4 81.625 1404.51 81.6823 1404.54 81.5625C1404.6 81.4427 1404.51 81.2917 1404.39 81.2292C1401.45 80.1094 1398.13 79.901 1394.92 80.5052C1393.62 80.7448 1392.35 81.1406 1391.11 81.651C1391.05 79.3542 1391.47 77.2656 1392.11 75.3021C1392.41 76.026 1392.74 76.6927 1393.17 77.2656C1393.29 77.4792 1393.2 74.3333 1393.35 73.0938C1393.59 73.849 1394.56 75.4219 1394.56 75.2135C1394.62 73.5469 1394.65 71.8229 1394.92 70.2188C1395.19 71.7344 1395.65 73.276 1396.16 74.6354C1396.01 71.4583 1396.46 68.3438 1397.58 65.7135C1397.07 67.3802 1396.98 69.2552 1397.34 71.0365C1397.43 71.5833 1397.61 72.125 1397.77 72.6719C1397.64 71.5521 1397.61 70.4635 1397.79 69.4323C1398.01 67.8594 1398.64 66.6198 1399.49 65.625C1399.49 65.776 1399.49 65.8958 1399.52 66.0469C1399.55 66.3802 1399.58 66.6823 1399.61 66.9844C1399.67 67.2865 1399.73 67.6198 1399.79 67.9219C1399.91 68.526 1400.09 69.1302 1400.24 69.7083C1400.28 69.8594 1400.48 69.8594 1400.48 69.6771C1400.48 69.6458 1400.52 68.7969 1400.52 68.7708C1400.52 68.4688 1400.52 68.1927 1400.55 67.8906C1400.58 67.6198 1400.58 67.3177 1400.61 67.0469C1400.64 66.7708 1400.7 66.5 1400.73 66.2292C1400.88 65.4115 1401.06 64.6563 1401.33 63.9896C1401.3 65.9844 1401.67 67.9844 1402.27 69.8281C1402.39 67.7708 1402.88 65.8646 1403.75 64.2604C1403.75 64.3542 1403.75 64.474 1403.75 64.5625C1403.72 65.8646 1403.93 67.1979 1404.21 68.4688C1404.23 68.5885 1404.36 68.5885 1404.36 68.4375C1404.39 67.4375 1404.42 66.4375 1404.57 65.5C1404.6 65.2917 1404.63 65.0208 1404.69 64.8073C1404.75 64.4115 1404.9 63.901 1405.02 63.5052L1405.23 62.901C1405.32 62.7188 1405.42 62.5365 1405.51 62.3594C1405.57 62.2656 1405.63 62.1771 1405.69 62.0833C1406.08 67.0729 1406.39 72.0938 1406.54 77.0885C1406.87 86.3698 1406.78 95.5677 1406.29 104.729ZM1420.57 60.7552C1420.08 60.3281 1419.54 59.9375 1418.99 59.5417C1420.48 60.151 1421.63 61.0885 1422.17 62.2969C1421.66 61.75 1421.11 61.2396 1420.57 60.7552Z" fill="#2A431C"/>
</g>
<mask id="mask6_219_123" style="mask-type:luminance" maskUnits="userSpaceOnUse" x="467" y="20" width="105" height="151">
<path d="M467.411 20.2134H571.026V170.443H467.411V20.2134Z" fill="white"/>
</mask>
<g mask="url(#mask6_219_123)">
<path d="M475.016 58.7865C471.354 60.4792 468.604 63.0521 467.302 66.3177C468.391 60.3594 474.167 56.0052 481.516 54.2188C485.901 53.1042 490.833 52.7708 495.911 53.0417C497.667 53.1302 499.453 53.3125 501.266 53.5573C498.302 52.2552 494.583 52.0104 490.833 52.7708C493.375 51.6198 496.156 50.8646 498.818 50.6823C498.755 50.651 498.729 50.651 498.667 50.6198C498.422 50.5 498.182 50.3802 497.943 50.2865C497.818 50.2292 497.667 50.1667 497.547 50.1354C497.396 50.1094 497.276 50.0781 497.125 50.0469C494.734 49.5938 489.167 50.7448 489.141 50.6198C489.109 50.5625 489.141 50.4688 489.198 50.4115C490.531 49.0781 492.406 48.0521 494.281 47.4479C491.677 47.2969 488.958 47.8073 486.203 48.625C487.958 47.75 489.833 46.9635 491.771 46.4167C488.927 46.3854 486.417 46.4479 483.333 46.9948C485.057 45.1458 487.688 44.0885 490.104 43.6042C489.016 43.0885 487.474 43.2135 485.599 43.8177C485.057 44 484.422 44.1771 483.844 44.3594C483.453 44.5104 481.76 44.875 481.943 44.7552C482.302 44.5104 483.208 43.875 483.542 43.6667C484.089 43.3333 484.693 42.9687 485.24 42.6667L485.568 42.4844C482.906 42.125 480.005 42.2448 476.979 42.9115C478.552 41.974 480.276 41.1875 482.063 40.4896C479.25 40.0677 476.161 40.4583 473.141 41.5469C474.469 40.6719 475.891 39.8542 477.432 39.2188C477.406 39.2188 477.375 39.2188 477.344 39.2188C476.828 39.1875 476.286 39.1875 475.771 39.1563C475.224 39.1563 474.682 39.1563 474.135 39.1563C473.594 39.1563 473.016 39.1875 472.443 39.1875C472.958 38.8854 473.5 38.5833 474.078 38.3125C474.62 38.0677 475.198 37.7969 475.771 37.5885C476.344 37.375 476.922 37.1615 477.526 36.9792C489.109 33.474 499.818 37.7969 505.412 45.1146C508.495 32.2604 515.844 23.25 524.557 20.375C522.255 22.0104 520.141 23.974 518.297 26.4271C518.63 26.151 519.021 25.9115 519.385 25.6667C519.958 25.3073 520.563 25.0365 521.167 24.8229C522.167 24.4896 523.167 24.3073 524.193 24.3073C524.255 24.3073 524.313 24.401 524.313 24.4896C524.313 24.5781 522.5 25.7917 521.714 26.4844C521.318 26.849 520.927 27.2135 520.563 27.6354L520.021 28.2396C519.839 28.4531 519.656 28.6615 519.505 28.875C519.266 29.1771 519.021 29.5417 518.807 29.901C520.26 29.4792 521.802 29.4219 523.375 30.1458C521.016 31.625 518.781 32.8698 516.479 34.4427C518.297 34.3177 520.203 34.9844 521.984 36.0729C519.745 35.8021 517.568 36.375 515.844 38.0104C517.083 38.0104 519.052 38.4323 519.052 38.5833C519.052 38.6771 518.958 38.7969 518.958 38.7969C517.719 39.401 516.63 40.276 515.542 41.2448C514.787 41.974 513.911 42.6667 513.214 43.5156C513.245 43.5156 513.245 43.5156 513.276 43.5156C515.844 40.9115 518.87 39.25 522.771 37.7396C528.672 35.3177 535.385 34.9531 541.13 37.5885C541.979 37.9479 542.823 38.4323 543.609 38.9479C544.005 39.1875 544.396 39.4896 544.76 39.7656C544.88 39.8229 544.912 39.974 544.88 40.125C544.823 40.276 540.104 38.9167 537.896 38.7969C539.62 39.7031 541.162 41.125 542.281 42.7604C542.313 42.8177 542.339 42.9115 542.281 42.9688C542.219 43.0625 539.74 41.7604 538.563 41.3958C537.198 40.974 535.839 40.7604 534.448 40.7917C535.927 41.6667 537.349 42.8802 538.198 44.4531C538.229 44.5417 538.255 44.6354 538.198 44.724C537.927 44.7865 534.385 43.2708 533.026 43.3333C533.208 43.5469 533.385 43.7552 533.542 43.9688L534.172 44.8125C534.448 45.2396 534.75 45.724 535.021 46.1771C535.172 46.4792 535.594 47.2656 535.745 47.5677C535.505 47.3229 534.901 46.75 534.656 46.5104C534.297 46.2083 533.87 45.875 533.51 45.5729L532.693 45.026C530.849 43.9688 529.245 43.6667 528.037 43.6979C530.063 44.8125 531.875 46.4479 533.297 48.2917C531.453 46.9948 529.458 46.0833 527.307 45.6615C528.458 46.4792 530.453 48.6563 530.422 48.7448C530.333 48.8698 526.521 47.3854 524.948 47.2656C526.37 48.0521 527.672 49.0469 528.823 50.1354C526.885 49.0469 524.828 48.3542 522.74 48.0521C523.74 48.9271 524.557 50.0469 525.042 51.2292C525.099 51.2292 525.13 51.2292 525.193 51.2552C529.484 52.2865 533.63 54.0417 537.292 56.4583C542.552 60.0573 546.787 64.9896 550.172 70.2188C550.234 70.3438 550.234 70.4635 550.146 70.5833C550.021 70.7031 548.391 69.2552 547.693 68.6198C547.995 69.1927 548.271 69.7656 548.448 70.3698C548.479 70.4323 548.391 70.5208 548.328 70.4635C546.724 69.1042 545.333 67.8021 543.912 66.3177C544.729 68.1615 545.214 70.2188 545.333 72.1875C544.188 69.1302 542.219 66.4115 539.526 64.5938C540.344 66.5313 540.797 68.7396 540.677 70.8281C540.615 70.8542 538.891 68.375 538.255 67.349C537.62 66.2292 536.26 63.901 535.625 62.8125C536.38 64.9271 536.776 67.2865 536.229 69.4948C536.229 69.4948 535.625 66.7135 535.083 65.4427C534.839 64.8073 534.537 64.2031 534.172 63.625C533.844 63.0208 533.479 62.4792 533.083 61.9323C532.448 61.026 531.604 60.3021 530.875 59.4531C530.875 59.4531 530.875 59.4531 530.875 59.4844C532.51 61.9948 533.63 64.9271 534.021 67.8333C533.385 66.2604 532.573 64.8073 531.604 63.5052C531.635 64.776 531.453 65.9844 531.208 67.1979C531.182 67.2865 531.151 67.349 531.057 67.3802C530.938 67.4375 529.729 64.776 529.125 63.7188C528.547 62.6875 527.912 61.75 527.219 61.0573C527.943 62.599 528.125 64.4115 527.943 66.0781C527.641 63.4479 526.188 61.1146 523.922 59.7865C524.615 61.5729 524.859 63.7188 524.313 65.5C525.375 66.8646 526.281 68.3438 527.068 69.9479C527.307 70.4323 527.521 70.9479 527.76 71.4583C527.974 71.974 528.188 72.4896 528.37 73.0052C529.88 77.1146 530.698 81.6823 530.906 86.3438C530.938 86.6719 530.938 87.0365 530.938 87.3698C531.12 87.5208 531.302 87.7031 531.484 87.8542C533.568 89.9115 535.109 92.6927 535.99 95.6563C535.896 92.9948 534.839 90.3958 533.057 88.3698C534.599 89.3646 535.958 90.6979 536.927 92.2708C536.927 92.2396 536.927 92.1771 536.927 92.151C536.927 91.9375 536.927 91.724 536.896 91.5156C536.896 91.3906 536.865 91.3021 536.865 91.1823C536.833 91.0885 536.807 90.9688 536.776 90.8802C536.26 89.1563 533.75 86.25 533.813 86.1927C533.844 86.1302 533.901 86.1302 533.964 86.1302C535.203 86.25 536.474 86.9167 537.443 87.7656C536.682 86.0417 535.474 84.6198 534.083 83.349C535.203 83.9844 536.292 84.7396 537.26 85.6458C536.354 83.8333 535.505 82.3177 534.172 80.6875C535.87 80.8073 537.38 81.8958 538.469 83.1667C538.406 82.2292 537.865 81.3229 536.896 80.4427C536.594 80.2031 536.292 79.901 535.99 79.625C535.776 79.474 534.99 78.599 535.109 78.6302C535.385 78.7188 536.052 78.9635 536.323 79.0521C536.714 79.2344 537.109 79.4167 537.469 79.599L537.682 79.7188C537.047 77.875 536.021 76.1198 534.63 74.5469C535.719 75.0625 536.776 75.6927 537.776 76.4531C537.141 74.4844 535.87 72.7604 534.234 71.4323C535.203 71.7917 536.172 72.276 537.047 72.8802C537.047 72.8542 537.016 72.8542 537.016 72.8229C536.865 72.4896 536.682 72.1563 536.531 71.7917C536.354 71.4583 536.172 71.1302 536.021 70.7656C535.839 70.4323 535.625 70.099 535.443 69.7344C535.807 69.9167 536.172 70.099 536.505 70.2813C536.833 70.4948 537.167 70.7031 537.5 70.9479C537.833 71.1875 538.135 71.4583 538.438 71.7031C544.823 77.5417 545.276 87.4896 541.766 95.0833C545 93.3281 548.328 92.8125 552.563 92.7552C558.313 92.5729 564.24 94.3281 568.474 98.2604C569.109 98.8333 569.714 99.4688 570.255 100.135C570.531 100.469 570.771 100.797 571.042 101.13C571.135 101.224 571.104 101.375 571.042 101.464C570.953 101.583 567.234 99.0156 565.359 98.2292C566.599 99.5 567.568 101.13 568.078 102.823C568.109 102.885 568.078 102.948 568.021 103.005C567.958 103.068 566.172 101.25 565.234 100.589C564.177 99.8333 563.057 99.224 561.818 98.8333C562.875 100.01 563.755 101.432 564.089 102.948C564.12 103.005 564.089 103.099 564.026 103.156C563.755 103.13 561.125 100.828 559.943 100.438C560.037 100.646 560.125 100.891 560.214 101.099L560.516 102.01C560.641 102.432 560.76 102.917 560.88 103.37C560.943 103.672 561.063 104.427 561.125 104.729C560.974 104.458 560.609 103.792 560.458 103.552C560.214 103.188 559.943 102.797 559.703 102.432L559.156 101.734C557.854 100.313 556.526 99.5573 555.469 99.224C556.917 100.771 558.037 102.646 558.766 104.609C557.526 102.974 556.042 101.615 554.287 100.646C555.073 101.646 556.193 104.036 556.13 104.125C556.01 104.219 553.141 101.828 551.807 101.224C552.807 102.313 553.682 103.49 554.38 104.76C552.984 103.281 551.417 102.099 549.693 101.193C549.693 101.193 549.693 101.193 549.693 101.224C550.323 102.25 550.719 103.401 550.807 104.521C549.146 102.193 546.12 101.25 543.427 101.708C543.76 101.917 544.063 102.161 544.365 102.401C547.302 103.609 549.87 105.516 551.568 108.151C553.318 111.021 554.589 114.198 555.167 117.583C555.953 122.484 555.344 127.656 554.078 132.589C554.047 132.677 553.953 132.771 553.833 132.771C553.714 132.771 553.651 131.047 553.651 130.286C553.5 130.771 553.292 131.255 553.016 131.74C552.984 131.802 552.896 131.802 552.896 131.708C552.833 130.047 552.833 128.536 552.896 126.932C552.26 128.474 551.292 129.953 550.172 131.198C551.385 128.745 551.896 126.083 551.474 123.604C550.781 125.208 549.693 126.781 548.391 127.958C548.328 127.958 548.875 125.568 549.146 124.604C549.448 123.604 550.115 121.484 550.385 120.49C549.537 122.151 548.328 123.786 546.724 124.813C546.724 124.813 548.057 122.818 548.51 121.792C548.75 121.276 548.932 120.76 549.115 120.219C549.297 119.703 549.417 119.156 549.537 118.615C549.719 117.734 549.693 116.859 549.781 115.984C549.208 118.344 548.057 120.698 546.547 122.635C547.151 121.365 547.542 120.068 547.787 118.766C547.026 119.552 546.214 120.188 545.365 120.792C545.302 120.823 545.245 120.854 545.151 120.823C545.031 120.792 545.969 118.583 546.245 117.615C546.547 116.677 546.755 115.802 546.787 115.016C546.271 116.313 545.276 117.526 544.188 118.401C545.578 116.646 546.182 114.5 545.729 112.505C545.031 113.953 543.885 115.375 542.521 116.161C543.521 114.589 543.672 112.807 543.276 111.234C542.641 112.474 541.797 113.594 540.859 114.531C540.708 114.682 540.464 114.531 540.557 114.349C541.068 113.109 541.495 111.87 541.615 110.688C541.13 111.568 540.557 112.385 539.891 113.109C540.313 111.474 540.375 109.932 540.042 108.479C539.828 109.359 539.526 110.203 539.193 110.99C539.016 108.026 538.047 105.396 536.292 103.25C536.229 103.188 536.172 103.13 536.141 103.068C528.521 125.661 522.047 144.172 522.104 170.214C522.104 170.214 520.682 170.271 516.573 170.214C516.964 144.323 523.953 126.63 534.297 101.797C534.266 101.797 534.266 101.797 534.234 101.828C534.083 101.885 533.932 101.979 533.781 102.068L533.328 102.37C533.057 102.583 532.693 102.885 532.448 103.13C532.328 103.25 532.146 103.432 532.026 103.552C531.453 104.125 530.969 104.792 530.422 105.484C530.365 105.578 530.245 105.516 530.302 105.427C530.698 104.427 531.208 103.37 531.844 102.464C531.906 102.401 531.938 102.313 531.995 102.25C530.547 102.917 529.245 104.005 528.156 105.396C528.578 103.792 529.307 102.219 530.271 100.828C529.729 101.161 529.214 101.583 528.698 102.068C528.547 102.25 528.37 102.401 528.214 102.583C528.063 102.766 527.912 102.948 527.76 103.156C527.609 103.339 527.458 103.552 527.307 103.734L526.854 104.339C526.766 104.458 526.615 104.37 526.672 104.245C526.823 103.76 526.974 103.25 527.188 102.766C527.276 102.521 527.401 102.281 527.521 102.036C527.641 101.797 527.792 101.557 527.912 101.313C527.974 101.224 528.037 101.099 528.094 101.01C526.948 101.281 525.885 101.828 524.948 102.823C524.344 103.458 523.802 104.245 523.375 105.063C523.526 104.609 523.651 104.156 523.859 103.703C524.464 102.281 525.432 101.01 526.646 100.104C524.495 101.375 522.651 103.339 521.198 105.609C521.469 104.37 521.865 103.099 522.412 101.885C521.412 102.885 520.531 104.036 519.688 105.182C519.568 105.333 519.594 103.734 519.776 103.099C519.083 103.885 517.599 106.151 517.599 105.943C517.568 105.333 517.63 104.672 517.75 104.036C516.24 105.125 514.849 106.396 513.76 108.12C514.031 106.635 514.635 105.063 515.391 103.672C513.214 104.911 511.401 106.969 510.068 109.359C510.432 108.089 510.917 106.818 511.583 105.609C510.313 106.484 507.677 108.302 507.318 108.422C508.589 128.625 511.583 150.099 514.724 170.214H507.5C505.167 149.703 502.964 128.688 502.599 107.906C502.417 97.5313 502.719 87.1302 503.505 76.8125C503.87 72.0052 504.354 67.224 504.927 62.4479C503.536 64.474 502.932 67.1354 503.266 69.526C502.417 67.6198 502.026 65.4115 502.328 63.2969C500.146 65.2292 498.786 68.375 499.573 71.3698C498.729 70.5208 498.063 69.4063 497.635 68.1354C497.182 70.1927 497.063 72.3385 497.307 74.4844C496.76 73.0313 496.37 71.4896 496.188 69.9167C495.734 71.4323 495.76 75.4219 495.672 75.4844C495.552 75.5417 495.401 75.4844 495.339 75.3646C494.766 74.1823 494.281 72.9115 494.01 71.5833C493.615 73.7292 493.708 75.875 494.188 78.0521C493.099 76.1198 492.344 73.8802 492.073 71.6406C491.891 71.9427 491.677 72.2188 491.5 72.4896C491.318 73.7604 491.375 75.0625 491.589 76.4219L491.771 77.3594C491.891 77.8125 492.042 78.2969 492.161 78.75C492.286 79.0521 492.557 79.8073 492.677 80.1094C492.464 79.8698 491.922 79.2031 491.74 78.9635C491.469 78.5677 491.135 78.1458 490.865 77.724L490.349 76.8438C490.229 76.6302 490.104 76.3906 489.984 76.1771C489.474 77.4167 489.563 81.1094 489.5 81.4115C489.412 81.5 489.26 81.474 489.167 81.3802C488.141 80.0521 487.625 78.3594 487.354 76.6615C486.354 79.1406 486.177 81.8073 486.63 84.4688C486.63 84.526 486.599 84.6198 486.536 84.6458C486.448 84.7083 485.026 82.1979 484.693 80.8385C484.573 80.2917 484.479 79.75 484.422 79.1719C483.755 81.2917 483.365 86.099 483.208 86.1302C483.057 86.1615 482.906 86.0677 482.88 85.9167C481.969 82.349 482.12 78.4479 483.182 74.7865C484.51 70.1927 487.234 66.1979 490.531 62.7813C490.104 61.901 489.865 60.9635 489.896 60.026V60C488.625 61.2969 487.656 62.8125 487.141 64.5365C487.052 62.6875 487.385 60.9063 488.109 59.2135C486.354 60.5104 485.417 62.3281 484.875 64.2917C484.781 62.7813 484.906 61.2656 485.479 59.875C483.667 61.3906 482.635 63.4167 482.302 65.6563C481.729 63.3542 481.818 60.9948 482.698 59C481.245 60.0885 480.396 61.5417 480.036 63.2031L479.885 63.9896C479.854 64.3854 479.823 64.8073 479.792 65.1979C479.792 65.474 479.854 66.1979 479.854 66.4688C479.703 66.1979 479.37 65.4427 479.219 65.1719C479.068 64.7448 478.854 64.2604 478.703 63.8385L478.464 62.9323C478.344 62.4167 478.25 61.901 478.219 61.3906C476.891 62.5677 475.891 63.9896 475.74 65.7448C475.255 64.1094 475.526 62.4792 476.135 61.0573C473.26 62.5365 471.385 64.8698 471.172 67.7708C470.505 64.1719 472.203 61.1771 475.016 58.7865ZM525.01 51.2552C522.5 49.349 519.052 49.5052 516.422 51.0156C516.573 51.0469 516.724 51.1042 516.906 51.1354C519.568 50.6823 522.318 50.651 525.01 51.2552ZM520.412 60.6354C520.563 61.0573 520.682 61.4792 520.807 61.9323C521.167 62.2344 521.531 62.5365 521.896 62.8698C522.74 63.6563 523.526 64.5365 524.287 65.474C523.74 63.2969 522.229 61.6615 520.412 60.6354ZM523.74 76.5417C523.526 78.3281 523.135 80.1719 522.5 81.776C523.375 82.1354 524.224 82.5625 525.073 83.0469C524.979 80.7135 524.589 78.4792 523.74 76.5417ZM525.948 80.9271C525.859 81.7135 525.734 82.5313 525.552 83.3177C526.099 83.651 526.641 83.9844 527.156 84.3438C526.734 83.1667 526.25 81.8073 525.948 80.9271ZM529.667 86.2813C529.276 85.0729 528.849 83.8906 528.427 82.7135C528.396 83.5313 528.307 84.3438 528.214 85.1302C528.729 85.4948 529.214 85.8594 529.667 86.2813ZM507.349 107.906C507.349 108.12 507.375 108.328 507.375 108.51C507.828 107.542 508.344 106.635 508.891 105.729C508.344 106.094 507.802 106.484 507.287 106.849C507.318 107.208 507.318 107.542 507.349 107.906ZM507.198 104.729C509.161 102.521 511.37 100.589 513.729 98.9844C514.12 98.7135 514.547 98.4688 514.938 98.1979C515.359 97.9583 515.787 97.7135 516.177 97.5C518.537 96.2604 521.078 95.4479 523.557 95.1719C525.073 94.9896 526.552 95.0208 528.005 95.2344C528.156 95.2656 528.307 95.2917 528.458 95.3229C526.797 94.3542 524.74 94.026 522.891 94.7188C523.526 93.875 524.438 93.2083 525.464 92.724C523.677 92.5104 521.865 92.5729 520.052 92.9948C521.229 92.3906 522.5 91.9063 523.828 91.6042C522.5 91.3646 519.141 91.724 519.052 91.6354C518.99 91.5417 519.021 91.3906 519.115 91.3333C520.052 90.6979 521.109 90.1823 522.229 89.8177C520.38 89.6667 518.568 89.9427 516.781 90.5469C518.328 89.3958 520.172 88.5208 522.047 88.0938C521.776 87.974 521.531 87.7917 521.26 87.6719C520.172 87.6094 519.052 87.7917 517.932 88.0938L517.146 88.3385C516.781 88.4896 516.359 88.6719 515.995 88.8229C515.755 88.9427 515.12 89.276 514.88 89.3958C515.089 89.1823 515.573 88.6406 515.755 88.4583C516.057 88.1875 516.391 87.8542 516.724 87.5833L517.417 87.0365C517.599 86.9167 517.781 86.7969 517.964 86.6719C516.875 86.3438 513.76 86.7344 513.484 86.7031C513.396 86.6146 513.427 86.4948 513.484 86.401C514.516 85.375 515.938 84.7396 517.328 84.375C515.151 83.7083 512.88 83.8021 510.646 84.4375C510.583 84.4375 510.521 84.4375 510.49 84.375C510.432 84.3125 512.427 82.8333 513.547 82.4115C514 82.2604 514.453 82.1094 514.938 82.0156C513.094 81.625 508.979 81.6823 508.948 81.5625C508.891 81.4427 508.979 81.2917 509.099 81.2292C512.037 80.1094 515.359 79.901 518.568 80.5052C519.87 80.7448 521.141 81.1406 522.38 81.651C522.438 79.3542 522.016 77.2656 521.38 75.3021C521.078 76.026 520.745 76.6927 520.323 77.2656C520.203 77.4792 520.292 74.3333 520.141 73.0938C519.901 73.849 518.932 75.4219 518.932 75.2135C518.87 73.5469 518.839 71.8229 518.568 70.2188C518.297 71.7344 517.844 73.276 517.328 74.6354C517.479 71.4583 517.026 68.3438 515.906 65.7135C516.422 67.3802 516.51 69.2552 516.146 71.0365C516.057 71.5833 515.875 72.125 515.724 72.6719C515.844 71.5521 515.875 70.4635 515.693 69.4323C515.484 67.8594 514.849 66.6198 514 65.625C514 65.776 514 65.8958 513.969 66.0469C513.943 66.3802 513.911 66.6823 513.88 66.9844C513.818 67.2865 513.76 67.6198 513.698 67.9219C513.578 68.526 513.396 69.1302 513.245 69.7083C513.214 69.8594 513 69.8594 513 69.6771C513 69.6458 512.974 68.7969 512.974 68.7708C512.974 68.4688 512.974 68.1927 512.943 67.8906C512.912 67.6198 512.911 67.3177 512.88 67.0469C512.849 66.7708 512.792 66.5 512.76 66.2292C512.609 65.4115 512.427 64.6563 512.156 63.9896C512.188 65.9844 511.823 67.9844 511.219 69.8281C511.099 67.7708 510.615 65.8646 509.734 64.2604C509.734 64.3542 509.734 64.474 509.734 64.5625C509.766 65.8646 509.552 67.1979 509.281 68.4688C509.25 68.5885 509.13 68.5885 509.13 68.4375C509.099 67.4375 509.073 66.4375 508.922 65.5C508.891 65.2917 508.859 65.0208 508.797 64.8073C508.74 64.4115 508.589 63.901 508.464 63.5052L508.255 62.901C508.161 62.7188 508.073 62.5365 507.979 62.3594C507.922 62.2656 507.859 62.1771 507.802 62.0833C507.406 67.0729 507.104 72.0938 506.953 77.0885C506.62 86.3698 506.714 95.5677 507.198 104.729ZM492.922 60.7552C493.401 60.3281 493.948 59.9375 494.495 59.5417C493.01 60.151 491.859 61.0885 491.318 62.2969C491.833 61.75 492.375 61.2396 492.922 60.7552Z" fill="#2A431C"/>
</g>
<mask id="mask7_219_123" style="mask-type:luminance" maskUnits="userSpaceOnUse" x="635" y="95" width="695" height="76">
<path d="M635.813 95.3281H1329.96V170.443H635.813V95.3281Z" fill="white"/>
</mask>
<g mask="url(#mask7_219_123)">
<path d="M1304.92 167.432C1304.77 165.974 1304.7 164.438 1304.7 162.979C1304.7 161.958 1303.31 161.807 1302.95 162.761C1302.36 164.365 1301.93 165.901 1301.56 167.505H1300.1C1299.08 158.448 1298.64 149.396 1298.27 140.266C1298.2 139.245 1296.74 138.953 1296.38 140.047C1293.74 148.958 1292.94 158.229 1292.51 167.505H1291.99C1291.55 164.656 1291.19 161.807 1290.75 158.964C1290.6 157.865 1288.85 158.156 1288.85 159.255C1288.78 162.031 1288.78 164.802 1288.85 167.578H1288.56C1287.1 162.833 1285.93 158.011 1284.91 153.047C1284.69 152.099 1283.16 152.318 1283.23 153.266C1283.59 158.011 1283.59 162.761 1283.45 167.578H1271.69L1271.62 166.703L1267.16 158.229L1265.7 145.38L1259.13 138.516L1260.95 123.177L1259.06 107.62L1255.99 104.917V102.146H1259.2L1262.56 106.964L1263.15 120.328L1267.53 139.901L1268.55 152.391L1271.32 155.167L1270.59 151.583L1272.86 157.5L1271.69 150.927L1274.1 153.193L1272.79 149.615L1272.28 141.651L1265.92 120.182L1265.7 104.698L1258.55 97.396H1248.69L1236.78 100.318L1207.42 99.1512L1191.65 95.4272L1176.31 97.2502L1152.14 105.87L1151.26 99.1512H1148.34L1144.25 105.87L1145.86 108.792L1141.7 103.896L1137.09 104.771L1138.48 110.031L1130.08 130.406L1132.35 133.985L1137.75 134.13L1146.59 128.438L1157.03 127.703L1173.83 143.698L1178.8 143.406L1178.21 152.901L1181.43 158.156C1181.43 158.156 1180.04 164.073 1179.31 167.724H1146.81C1146.37 162.542 1146.15 157.354 1145.93 152.172C1145.86 150.927 1144.18 150.708 1143.74 151.88C1141.99 157.063 1142.14 162.396 1142.57 167.724H1137.82C1137.53 165.974 1137.24 164.219 1136.95 162.396C1136.73 161.224 1136.22 160.203 1134.91 160.13C1134.32 160.13 1134.03 160.714 1134.1 161.224C1134.39 163.417 1134.61 165.537 1134.83 167.724H1109.85L1110.51 161.662L1110.8 146.547L1107.66 142.75C1108.25 140.995 1111.39 131.136 1111.46 130.844C1111.54 130.625 1112.27 125.443 1112.85 121.714L1112.99 135.156L1111.24 140.922L1112.99 154.141L1113.14 152.901V157.208L1114.09 161.662L1115.63 157.208C1115.77 156.406 1116.94 149.688 1116.94 149.031C1116.94 148.886 1116.79 148.005 1116.57 146.328C1116.06 143.042 1115.26 137.563 1115.33 136.031C1115.48 133.839 1116.5 109.011 1116.5 108.792V108.646L1108.25 104.188L1108.18 104.115L1090.72 105.943L1056.47 110.906L1043.03 120.693L1042.96 120.766L1037.41 137.344V147.349L1033.03 147.495L1031.35 150.198L1021.93 150.636L1024.11 154.578L1031.05 156.479L1031.35 159.255V159.401L1034.93 162.833L1034.78 167.724H1002.28C1001.99 165.755 1001.77 163.854 1001.48 161.813C1001.11 159.182 1000.82 156.625 1000.53 153.995C1000.38 151.219 1000.09 148.37 999.724 145.599C999.724 145.38 999.651 145.235 999.651 145.011C999.651 144.865 999.651 144.792 999.578 144.719C999.432 143.479 997.313 143.771 997.385 145.011C997.604 147.932 997.901 150.927 998.266 153.849C998.412 155.531 998.484 157.208 998.557 158.891C998.63 161.005 998.63 163.125 998.557 165.245C998.484 164.292 998.339 163.344 998.266 162.469C998.12 161.443 996.802 160.86 996.146 161.886C995.635 162.688 995.417 163.563 995.271 164.438C995.052 163.198 994.76 162.031 994.396 160.787C993.953 159.474 992.349 159.912 992.203 161.078C992.057 162.323 991.912 163.49 991.766 164.729C991.693 164.219 991.62 163.708 991.547 163.125L991.401 154.797C991.401 153.412 989.354 153.412 989.208 154.797C988.99 158.011 989.063 161.224 989.427 164.365C989.427 164.802 989.427 165.172 989.427 165.61C989.427 166.266 989.5 166.995 989.5 167.651H976.135C975.625 165.682 975.042 163.708 974.531 161.735C974.162 160.422 972.266 160.714 972.193 162.104C972.047 164 971.901 165.828 971.682 167.724H970.146C970 166.339 970 164.948 969.927 163.636C969.781 159.766 969.635 155.75 969.781 151.807C969.927 150.271 970 148.74 970 147.13C970 145.453 967.516 145.453 967.37 147.13C967.224 149.323 967.078 151.583 966.932 153.776C966.641 155.969 966.203 158.083 965.62 160.203C965.474 160.641 965.401 161.151 965.328 161.589C965.328 161.37 965.255 161.078 965.255 160.86C965.182 159.62 963.354 159.255 963.063 160.568C962.479 162.979 961.896 165.318 961.313 167.724H947.141C946.849 165.318 946.557 162.906 946.339 160.568C945.755 154.578 945.099 148.594 944.516 142.677C944.443 141.578 942.906 141.578 942.833 142.677C942.25 151.073 941.667 159.401 941.083 167.797H940.641C940.422 164.583 940.203 161.37 939.984 158.083C939.912 157.063 938.38 156.771 938.089 157.865C937.427 160.495 936.844 163.125 936.333 165.828C935.896 159.839 935.458 153.849 934.802 147.932C934.656 146.401 932.318 146.328 932.391 147.932C932.537 154.578 932.464 161.224 932.099 167.87H910.849L911.505 161.813L911.797 146.693L908.656 142.896C909.24 141.141 912.38 131.281 912.453 130.99C912.526 130.771 913.255 125.589 913.839 121.865L913.984 135.302L912.234 141.068L913.984 154.287L914.13 153.047V157.354L915.083 161.813L916.615 157.354C916.76 156.552 917.932 149.833 917.932 149.177C917.932 149.031 917.787 148.151 917.568 146.474C917.052 143.188 916.25 137.708 916.323 136.177C916.469 133.985 917.49 109.156 917.49 108.938V108.792L909.24 104.333L909.167 104.261L891.714 106.089L857.464 111.052L844.021 120.839L843.948 120.912L838.401 137.49V147.495L834.016 147.641L832.339 150.344L822.917 150.781L825.109 154.724L832.047 156.625L832.339 159.401V159.547L835.917 162.979L835.771 167.87H819.776C819.776 167.87 819.776 167.797 819.703 167.797C819.193 166.412 818.901 164.948 818.828 163.49C818.682 161.886 816.635 161.958 816.417 163.49C816.271 164.948 815.979 166.412 815.76 167.943H815.323C815.177 166.995 815.031 165.974 814.885 165.021C814.74 163.854 812.766 163.927 812.547 165.021C812.328 165.974 812.182 166.995 812.037 167.943H811.964C811.745 163.927 811.599 159.839 811.526 155.823C811.526 154.287 809.406 154.36 809.26 155.823C808.823 159.839 808.385 163.927 808.021 167.943H796.917V167.797L793.12 160.568L791.88 149.615L786.255 143.771L787.792 130.698L786.182 117.406L783.552 115.146V112.151H786.255L789.177 116.24L789.688 127.63L793.412 144.281L794.292 154.943L796.698 157.354L796.115 154.287L798.089 159.328L797.063 153.703L799.109 155.677L798.016 152.61L797.578 145.818L792.099 127.557L791.953 114.339L785.818 108.13H777.422L767.266 110.615L742.292 109.594L728.854 106.453L715.781 107.985L695.188 115.292L694.458 109.594H691.974L688.469 115.292L689.854 117.771L686.276 113.61L682.333 114.339L683.5 118.87L676.344 136.25L678.245 139.318L682.844 139.464L690.365 134.641L699.276 133.985L713.589 147.641L717.828 147.422L717.391 155.531L720.089 160.057C720.089 160.057 719.068 164.438 718.412 167.578H710.599C710.599 167.505 710.526 167.432 710.526 167.36C709.938 165.318 709.573 163.198 709.5 161.078C709.427 159.255 706.87 159.328 706.724 161.078C706.578 162.542 706.432 164 706.287 165.464C706.068 163.49 705.849 161.443 705.776 159.474C705.703 157.865 703.438 157.865 703.292 159.474C703.219 160.787 703.073 162.031 703 163.271C702.854 161.886 702.635 160.495 702.125 159.11C701.688 157.938 699.859 158.011 699.859 159.401C699.859 160.349 699.859 161.297 699.859 162.25C699.787 161.735 699.787 161.224 699.787 160.787C699.787 160.057 699.859 159.474 699.787 158.745C699.714 157.938 699.641 157.136 699.641 156.333C699.568 155.016 697.672 155.016 697.599 156.333C697.453 157.792 697.38 159.255 697.672 160.714C697.891 162.177 697.818 163.708 697.964 165.172C698.037 165.974 698.109 166.776 698.182 167.578H666.776C666.557 165.974 666.339 164.438 666.12 162.906C665.391 157.573 664.662 152.245 664.005 146.839C663.854 145.599 661.813 144.938 661.521 146.474C661.521 146.62 661.521 146.693 661.448 146.839C660.495 152.755 661.521 158.964 660.792 164.875C660.13 164.875 659.474 165.245 659.474 166.12C659.474 166.63 659.474 167.068 659.474 167.578H659.037C658.818 165.682 658.745 163.708 658.818 161.735C658.891 160.422 656.698 160.13 656.479 161.443C656.188 163.49 655.823 165.61 655.458 167.651H651.662C651.516 166.703 651.297 165.682 651.078 164.729C649.979 159.401 649.104 154.068 647.719 148.813C647.427 147.714 645.526 147.86 645.599 149.104C646.182 155.167 646.328 161.443 645.964 167.651H636.615L635.813 194.964H1329.6V167.432H1304.92ZM771.287 146.401C772.162 145.891 773.984 142.969 773.984 142.969L783.406 152.318L787.573 159.037L790.563 167.432H761.865L772.599 156.115L772.745 152.61C772.818 152.61 770.406 146.912 771.287 146.401ZM727.76 144.427L734.625 140.485L750.323 146.474L763.031 144.792L763.396 156.333L754.927 167.432H737.693L736.229 163.125H730.677L724.547 156.771L727.76 144.427ZM722.865 161.516L728.344 166.557L732.287 167.432H722.792L722.865 161.516ZM904.271 157.573H906.026L906.755 161.735L905.151 167.36H902.01L904.271 161.078V157.573ZM887.698 144.646L897.479 138.735L898.359 148.886L899.089 159.912C897.333 163.344 896.167 165.682 895.365 167.432H879.662C878.932 164.875 877.912 161.443 877.839 161.005C877.693 160.422 877.396 156.261 877.25 154.068L874.479 145.453L887.698 144.646ZM855.49 154.432L860.969 155.313H861.115L866.005 148.667L869.146 150.927L869.729 157.573V157.646L873.016 161.37L874.26 167.36H850.667L852.714 160.495L855.49 154.432ZM847.089 161.589L847.677 155.386L849.281 154.724L849.427 161.005L846.724 167.432H844.094L847.089 161.589ZM1103.06 157.573H1104.82L1105.55 161.735L1103.94 167.36H1100.8L1103.06 161.078V157.573ZM1086.48 144.646L1096.27 138.735L1097.15 148.886L1097.88 159.912C1096.13 163.344 1094.96 165.682 1094.15 167.432H1078.45C1077.72 164.875 1076.7 161.443 1076.63 161.005C1076.48 160.422 1076.19 156.261 1076.04 154.068L1073.27 145.453L1086.48 144.646ZM1054.28 154.432L1059.76 155.313H1059.9L1064.8 148.667L1067.94 150.927L1068.52 157.573V157.646L1071.81 161.37L1073.05 167.36H1049.46L1051.51 160.495L1054.28 154.432ZM1045.88 161.589L1046.46 155.386L1048.07 154.724L1048.22 161.005L1045.52 167.432H1042.89L1045.88 161.589ZM1241.31 141.948C1242.33 141.36 1244.52 137.927 1244.52 137.927L1255.63 148.886L1260.52 156.771L1264.31 167.36H1229.55L1242.84 153.266L1243.06 149.177C1243.06 149.25 1240.29 142.531 1241.31 141.948ZM1190.26 139.682L1198.37 135.078L1216.84 142.094L1231.74 140.12L1232.11 153.703L1221.52 167.432H1202.17L1200.12 161.662H1193.62L1186.46 154.214L1190.26 139.682ZM1184.49 159.766L1190.84 165.682L1198.88 167.505H1184.34L1184.49 159.766Z" fill="#2A431C"/>
</g>
</svg>
