<svg id="Layer_1" height="512" viewBox="0 0 256 256" width="512" xmlns="http://www.w3.org/2000/svg"><g><path d="m68.692 110.742c-3.501-1.157-7.117-2.168-9.147-10.913-1.87 8.055-4.865 9.498-9.147 10.913 6.984 2.308 8.037 6.129 9.147 10.913 1.913-8.247 5.078-9.569 9.147-10.913z" fill="#f0c020"/></g><g><path d="m204.639 110.742c-3.501-1.157-7.117-2.168-9.147-10.913-1.87 8.055-4.865 9.498-9.147 10.913 6.984 2.308 8.037 6.129 9.147 10.913 1.914-8.247 5.079-9.569 9.147-10.913z" fill="#f0c020"/></g><g><g><g><path d="m239.599 117.765c-5.683 0-10.29 4.606-10.29 10.29l-.362 33.385c0 2.336-.93 4.573-2.583 6.226l-32.086 32.094c-3.94 3.94-10.676 4.236-14.682.362-4.145-4.014-4.178-10.627-.123-14.69l13.012-13.012c3.627-3.619 3.833-9.516.296-13.218-3.66-3.825-9.697-3.849-13.39-.156l-27.521 27.505c-7.549 7.549-11.589 17.88-11.228 28.483h-.026v35.644h50.38v-13.378l55.207-55.207c2.114-2.122 3.306-4.984 3.306-7.978l.362-46.06c.001-5.684-4.597-10.282-10.272-10.29z" fill="#ffb69f"/></g></g><g><g><path d="m16.401 117.765c5.683 0 10.29 4.606 10.29 10.29l.362 33.385c0 2.336.93 4.573 2.583 6.226l32.086 32.094c3.94 3.94 10.676 4.236 14.682.362 4.145-4.014 4.178-10.627.123-14.69l-13.013-13.012c-3.627-3.619-3.833-9.516-.296-13.218 3.66-3.825 9.697-3.849 13.39-.156l27.521 27.505c7.549 7.549 11.589 17.88 11.228 28.483h.026v35.644h-50.38v-13.378l-55.207-55.207c-2.114-2.122-3.306-4.984-3.306-7.978l-.362-46.06c0-5.684 4.598-10.282 10.273-10.29z" fill="#ffb69f"/></g></g></g><path d="m176.31 97.05c-2.62 2.55-3.82 6.23-3.2 9.84l5.62 32.78c1.56 9.08-7.97 16-16.12 11.71l-29.44-15.48c-3.24-1.7-7.1-1.7-10.34 0l-5.57 2.93v-29.71h35.85c2.82 0 4.37-3.3 2.56-5.47l-8.63-10.36c-1.03-1.24-1.03-3.03 0-4.27l8.63-10.36c1.81-2.17.26-5.47-2.56-5.47h-35.85v-1.59c0-2.666-2.154-4.82-4.82-4.82-2.65 0-4.81 2.16-4.81 4.82v72.29l-14.24 7.49c-8.15 4.29-17.68-2.63-16.12-11.71l5.62-32.78c.62-3.61-.58-7.29-3.2-9.84l-23.81-23.22c-6.6-6.42-2.96-17.62 6.15-18.95l32.92-4.78c3.62-.53 6.75-2.8 8.37-6.08l14.72-29.83c4.07-8.25 15.85-8.25 19.92 0l14.72 29.83c1.62 3.28 4.75 5.55 8.37 6.08l32.92 4.78c9.11 1.33 12.75 12.53 6.15 18.95z" fill="#f0c020"/><path d="m155.67 103.65c1.81 2.17.26 5.47-2.56 5.47h-35.85v-35.93h35.85c2.82 0 4.37 3.3 2.56 5.47l-8.63 10.36c-1.03 1.24-1.03 3.03 0 4.27z" fill="#fc5d3d"/><path d="m117.26 71.6v95.4h-9.63v-95.4c0-2.66 2.16-4.82 4.81-4.82 2.666 0 4.82 2.154 4.82 4.82z" fill="#72c2e9"/><g><path d="m137.147 44.313c-3.501-1.157-7.117-2.168-9.147-10.913-1.87 8.055-4.865 9.498-9.147 10.913 6.984 2.308 8.037 6.129 9.147 10.913 1.913-8.248 5.079-9.569 9.147-10.913z" fill="#f0c020"/></g><path d="m182.143 247.417c-1.381 0-2.5-1.119-2.5-2.5v-11.285c0-.663.264-1.299.732-1.768l11.815-11.815c.977-.977 2.559-.977 3.535 0 .977.976.977 2.559 0 3.535l-11.083 11.083v10.249c.001 1.382-1.119 2.501-2.499 2.501zm17.119-30.903c-.977-.976-.977-2.559 0-3.535l38.902-38.903.354-46.041c.011-1.374 1.128-2.48 2.5-2.48h.02c1.381.011 2.491 1.139 2.48 2.52l-.362 45.991c0 1.336-.516 2.601-1.453 3.542l-38.906 38.906c-.977.976-2.559.976-3.535 0z" fill="#fbe0e2"/><path d="m106.528 247.417c-1.135 0-2.491-.557-2.504-3.211l-.034-8.588c-.005-1.38 1.111-2.503 2.491-2.508h.009c1.377 0 2.495 1.114 2.5 2.492.017 5.021.036 9.021.038 9.278v.038c0 1.38-1.119 2.499-2.5 2.499zm-2.562-21.816c-.001-1.737-.013-9.23.043-10.952.245-7.592-2.728-14.89-7.906-20.068l-27.523-27.505c-.977-.976-.977-2.559-.001-3.535.977-.978 2.56-.978 3.536-.001l27.522 27.506c6.072 6.071 9.665 14.698 9.369 23.769-.054 1.602-.042 9.125-.041 10.697-3.069.107-1.929.086-4.999.089z" fill="#fbe0e2"/><path d="m165.175 146.514-18.613-9.787c-1.223-.643-1.692-2.154-1.05-3.376s2.156-1.691 3.376-1.049l18.612 9.786c.502.262.967-.165.882-.643l-5.62-32.778c-1.243-7.253 1.33-14.379 6.22-19.136l23.815-23.225c.986-.963 2.57-.945 3.535.044.964.989.944 2.571-.045 3.536l-23.817 23.226c-3.729 3.629-5.738 9.08-4.78 14.711l5.62 32.776c.786 4.591-3.989 8.091-8.135 5.915zm-27.464-14.441-1.981-1.042c-1.223-.643-1.692-2.154-1.05-3.376.644-1.223 2.155-1.692 3.376-1.05l1.981 1.042c1.223.643 1.692 2.154 1.05 3.376-.643 1.224-2.157 1.692-3.376 1.05z" fill="#f8e5ac"/><path d="m142 102.329h-16.625c-1.381 0-2.5-1.119-2.5-2.5v-18.662c0-1.381 1.119-2.5 2.5-2.5s2.5 1.119 2.5 2.5v16.163h14.125c1.381 0 2.5 1.119 2.5 2.5s-1.119 2.499-2.5 2.499z" fill="#ffcbc3"/><path d="m225.729 206.1c.968-.967.98-2.551 0-3.53-.939-.95-2.59-.95-3.529 0-.996.975-.979 2.572 0 3.53.978.978 2.559.97 3.529 0z"/><path d="m181.34 198.32c-3.188-3.083-3.131-8.09-.1-11.12l13.01-13.01c4.593-4.594 4.803-12.055.34-16.71-4.481-4.701-12.159-5.012-16.97-.2l-27.521 27.5c-7.5 7.5-11.979 17.838-11.979 28.95v36.95c0 1.38 1.12 2.5 2.5 2.5s2.5-1.12 2.5-2.5c0-37.655 0 43.116 0-36.95 0-9.47 3.83-18.73 10.52-25.41l27.521-27.51c2.706-2.706 7.138-2.685 9.819.12 2.562 2.712 2.427 7.032-.26 9.72l-13.01 13.01c-5.109 5.11-4.938 13.337.149 18.26 5.025 4.87 13.315 4.464 18.19-.39l32.08-32.1c2.14-2.13 3.31-4.96 3.31-7.96l.37-33.39v-.03c.01-4.28 3.5-7.78 7.79-7.79 4.28.01 7.771 3.51 7.771 7.79l-.36 46.05c0 2.34-.91 4.56-2.58 6.23l-15.16 15.17c-1.016.996-.957 2.592 0 3.53.94.94 2.59.94 3.53 0l15.17-15.17c2.61-2.62 4.04-6.08 4.04-9.75l.36-46.04c0-7.05-5.73-12.79-12.771-12.8-7.04 0-12.78 5.72-12.79 12.76-.001.049-.359 33.362-.359 33.41 0 1.68-.66 3.27-1.851 4.46l-32.09 32.09c-2.981 3.001-8.164 3.245-11.169.33z"/><path d="m193.5 250.68v-12.34l25.16-25.17c.97-.97.97-2.56 0-3.53-.95-.95-2.591-.95-3.54 0l-25.891 25.89c-.47.46-.729 1.11-.729 1.77v13.38c0 1.38 1.12 2.5 2.5 2.5 1.37 0 2.5-1.12 2.5-2.5z"/><path d="m8.02 183.86 54.48 54.47v12.35c0 1.38 1.12 2.5 2.5 2.5s2.5-1.12 2.5-2.5v-13.38c0-.67-.26-1.29-.73-1.77l-55.21-55.2c-1.66-1.67-2.569-3.88-2.569-6.21l-.36-46.09c0-4.27 3.49-7.76 7.77-7.77 4.29.01 7.78 3.51 7.79 7.79l.36 33.42c.01 3 1.19 5.83 3.32 7.96l6.359 6.36c.94.95 2.59.95 3.53.01 1-1.022.948-2.591 0-3.54l-6.36-6.36c-1.189-1.19-1.85-2.78-1.85-4.46l-.36-33.41c-.02-7.04-5.75-12.76-12.79-12.77-7.04.02-12.77 5.75-12.77 12.79l.36 46.08c0 3.61 1.47 7.15 4.03 9.73z"/><path d="m48.359 189.94 11.591 11.59c4.846 4.827 13.141 5.264 18.189.39 5.108-4.942 5.238-13.152.16-18.25l-13.02-13.02c-2.665-2.645-2.864-6.987-.261-9.72 2.665-2.785 7.082-2.848 9.82-.11l27.52 27.5c6.652 6.642 10.79 16.114 10.5 26.64 0 0 .021-1.236.021 35.72 0 1.38 1.12 2.5 2.5 2.5s2.5-1.12 2.5-2.5c0-.159.011-35.784-.021-35.94.322-11.08-4.011-22.011-11.96-29.96l-27.52-27.5c-4.831-4.809-12.455-4.529-16.97.19-4.426 4.615-4.328 12.073.34 16.72l13.01 13.01c3.036 3.037 3.074 8.038-.1 11.13-2.951 2.863-8.148 2.703-11.17-.34l-11.589-11.59c-.939-.94-2.59-.94-3.529 0-.969.949-1.003 2.538-.011 3.53z"/><path d="m44.83 182.87c.97-.98.97-2.56 0-3.54-.94-.94-2.59-.95-3.53 0-.98.98-.98 2.56-.01 3.54 1.019.998 2.589.949 3.54 0z"/><path d="m79.34 54.89c1.338-.182 2.317-1.459 2.11-2.83-.19-1.34-1.49-2.31-2.83-2.12-1.36.2-2.311 1.47-2.12 2.84.203 1.38 1.52 2.33 2.84 2.11z"/><path d="m77.939 98.84c2.078 2.015 2.971 4.957 2.48 7.63l-5.61 32.78c-1.954 10.913 9.643 19.671 19.74 14.34l10.58-5.565v18.975c0 1.381 1.119 2.5 2.5 2.5s2.5-1.119 2.5-2.5v-95.4c0-1.279 1.036-2.32 2.31-2.32 1.306 0 2.32 1.052 2.32 2.32v95.4c0 1.381 1.119 2.5 2.5 2.5s2.5-1.119 2.5-2.5v-26.665l4.23-2.225c2.46-1.29 5.55-1.29 8.02 0l29.44 15.48c9.966 5.262 21.713-3.251 19.739-14.34l-5.62-32.78c-.479-2.966.559-5.756 2.48-7.63l23.81-23.22c8.07-7.826 3.664-21.579-7.529-23.21l-32.92-4.78c-2.811-.42-5.23-2.18-6.49-4.72l-14.719-29.83c-4.984-10.116-19.449-10.098-24.4 0l-14.72 29.83c-1.261 2.54-3.681 4.3-6.49 4.72l-6.07.88c-1.363.184-2.325 1.47-2.12 2.83.2 1.34 1.49 2.31 2.83 2.12l6.08-.89c4.44-.65 8.271-3.43 10.25-7.44l14.72-29.83c3.173-6.41 12.262-6.418 15.439 0l14.72 29.83c1.98 4.01 5.811 6.79 10.25 7.44l32.92 4.78c6.888 1.002 9.976 9.597 4.761 14.69l-23.81 23.22c-3.09 3.02-4.697 7.517-3.91 12.06l5.62 32.77c1.108 7.061-6.181 12.387-12.5 9.08l-29.439-15.48c-3.91-2.05-8.79-2.04-12.66 0l-1.91 1.005v-23.075h33.351c4.944 0 7.645-5.778 4.48-9.57l-8.628-10.357c-.259-.312-.259-.763-.002-1.072l8.629-10.358c3.169-3.799.46-9.572-4.479-9.572h-33.413c-.447-3.632-3.52-6.41-7.258-6.41-4.03 0-7.31 3.284-7.31 7.32v70.784l-12.9 6.785c-6.439 3.372-13.682-2.229-12.5-9.07l5.62-32.79c.782-4.513-.802-9.028-3.92-12.05l-23.8-23.22c-5.095-4.976-2.371-13.65 4.76-14.69l7.05-1.02c1.36-.2 2.311-1.47 2.12-2.83-.2-1.34-1.49-2.32-2.84-2.12l-7.05 1.03c-11.241 1.639-15.574 15.435-7.53 23.21zm75.81-21.78-8.632 10.362c-1.797 2.162-1.797 5.302.002 7.468l8.631 10.361c.454.543.065 1.369-.64 1.369h-33.35v-30.93h33.351c.7 0 1.096.821.638 1.37z"/><path d="m49.613 113.116c5.831 1.927 6.493 4.782 7.496 9.104.599 2.578 4.272 2.578 4.871 0 1.665-7.178 3.985-7.944 7.496-9.104 2.279-.753 2.284-3.994 0-4.748-3.282-1.076-5.799-1.795-7.497-9.104-.597-2.573-4.275-2.566-4.87 0-1.667 7.179-3.986 7.945-7.496 9.104-2.279.753-2.284 3.993 0 4.748zm9.94-6.113c.992 1.721 2.105 2.902 3.256 3.759-1.195.872-2.275 2.018-3.221 3.627-.799-1.289-1.882-2.51-3.413-3.593 1.259-.897 2.393-2.088 3.378-3.793z"/><path d="m197.927 99.263c-.597-2.573-4.275-2.566-4.87 0-1.667 7.179-3.986 7.945-7.496 9.104-2.279.753-2.284 3.993 0 4.748 5.831 1.927 6.493 4.782 7.496 9.104.599 2.578 4.272 2.578 4.871 0 1.665-7.178 3.985-7.944 7.496-9.104 2.279-.753 2.284-3.994 0-4.748-3.283-1.075-5.8-1.794-7.497-9.104zm-2.391 15.126c-.799-1.289-1.882-2.51-3.413-3.593 1.258-.897 2.392-2.088 3.377-3.793.992 1.721 2.105 2.902 3.256 3.759-1.193.872-2.274 2.019-3.22 3.627z"/><path d="m125.564 55.791c.599 2.578 4.272 2.578 4.871 0 1.665-7.178 3.985-7.944 7.496-9.104 2.279-.753 2.284-3.994 0-4.748-3.283-1.076-5.799-1.795-7.497-9.104-.597-2.573-4.275-2.566-4.87 0-1.667 7.179-3.986 7.945-7.496 9.104-2.279.753-2.284 3.993 0 4.748 5.831 1.927 6.494 4.782 7.496 9.104zm2.445-15.217c.992 1.721 2.105 2.902 3.256 3.759-1.195.872-2.275 2.018-3.221 3.627-.799-1.289-1.882-2.51-3.413-3.593 1.258-.897 2.392-2.088 3.378-3.793z"/></svg>