<svg id="Capa_1" enable-background="new 0 0 512 512" height="512" viewBox="0 0 512 512" width="512" xmlns="http://www.w3.org/2000/svg"><g><g><path d="m148.762 150.853v-55.052c0-15.856 2.137-30.195 10.679-43.554 10.516-16.446 26.798-26.858 45.688-27.908l6.124 2.298 8.266-1.968c14.283-11.127 31.87-17.169 49.976-17.169h19.325c44.183 0 80 35.817 80 80v69.72z" fill="#bc7c63"/><path d="m205.58 24.13c-2.73 1.11-5.38 2.43-7.93 3.94-8.09 4.82-15.13 11.61-20.39 20.06-8.54 13.73-13.08 29.68-13.08 45.98v57.31l-20-.57v-55.05c0-15.85 4.54-31.38 13.08-44.74 5.26-8.22 12.3-14.83 20.39-19.52 8.09-4.68 17.23-7.44 26.67-7.97z" fill="#aa6a51"/><g><path d="m233.26 85.56c-1.38 2.43-3.92 3.8-6.53 3.8-1.25 0-2.52-.31-3.69-.97-9.34-5.28-17.1-30.99-18.89-46.73-.79-6.94-.73-12.982.17-18.092 1.1-.07 2.2-.098 3.31-.098 3.94 0 7.918.4 11.888 1.2-.58 2.32-.938 5.04-.908 8.37.08 9.47 2.31 19.59 5.06 27.74 2.47 7.35 5.38 13.15 7.04 14.72 3.39 2.12 4.54 6.55 2.55 10.06z" fill="#aa6a51"/></g><path d="m436.004 364.907v100.59l-17.514 28.216-59.986 10.784h-119.838l-22.58-6.105-134.422.661 2.552-131.284c0-19.02 13.38-35.4 32.01-39.2l94.163-19.177c2.47-.51 2.045-7.545 2.045-7.545s29.343 11.883 45.429 11.428c14.774-.418 41.711-11.428 41.711-11.428 1.41 1.91 3.52 3.3 5.99 3.81l98.43 20.05c18.63 3.8 32.01 20.18 32.01 39.2z" fill="#bbec6c"/><path d="m299.57 301.85c-25.4 20.53-61.74 20.53-87.14 0 7.671-1.786 7.231-5.17 7.231-7.4l-5.221-44.95h83.12l-4.578 15.885 4.578 12.005v18.47c0 2.23.74 4.31 2.01 5.99z" fill="#f4aa73"/><path d="m229.65 312.06c-4.27 6.63-11.09 11.54-19.22 13.2l-98.42 20.05c-9.28 1.89-16.01 10.13-16.01 19.6v100.59l-11.642 5.757-8.358-5.757v-100.59c0-19.02 13.38-35.4 32.01-39.2l98.43-20.05c2.47-.51 4.58-1.9 5.99-3.81l11.194-.685z" fill="#afe05a"/><path d="m297.56 249.5v27.89l-8.31 5.5c-8.51 5.63-18.26 9.25-28.42 10.07-7.25.58-14.44-.16-21.25-2.14-2.57-.75-5.14 1.15-5.14 3.83v1.21c0 5.9-1.74 11.49-4.79 16.2-6.09-2.5-11.9-5.9-17.22-10.21 1.27-1.68 2.01-3.76 2.01-5.99v-46.36z" fill="#ea9f6c"/><path d="m339.944 192h-167.887c-17.152 0-31.057-13.904-31.057-31.057v-.31c0-10.291 8.343-18.634 18.634-18.634h192.732c10.291 0 18.634 8.343 18.634 18.634v.31c0 17.153-13.904 31.057-31.056 31.057z" fill="#ea9f6c"/><path d="m233.927 267.505-37.645-24.906c-13.994-9.259-22.411-24.92-22.411-41.7v-67.93c0-9.196 5.127-17.624 13.292-21.853l11.141-5.433c13.403-6.536 21.905-20.142 21.905-35.054v-8.487c0-1.816 2.221-2.689 3.457-1.359 14.478 15.575 36.013 25.314 57.748 25.179h8.181c15.073 0 29.29 7.002 38.477 18.951l.007.009c6.518 8.478 10.052 18.866 10.052 29.56l.002 66.413c.001 16.782-8.418 32.444-22.414 41.703l-37.653 24.907c-13.382 8.854-30.758 8.853-44.139 0z" fill="#f4aa73"/><path d="m436 465.5v34c0 2.761-2.239 5-5 5h-57.5l-7.5-39z" fill="#afe05a"/><path d="m145.5 465.5v33.115l-7 5.885h-42.5l-9.055-4.454v-34.546z" fill="#afe05a"/><path d="m96 465.5v39h-15c-2.761 0-5-2.239-5-5v-34z" fill="#a3d350"/><path d="m365.32 411.64-.604.185c-3.006-3.582-7.314-3.861-11.459-3.183-1.923.315-5.523 1.118-5.523 1.118 5.288-4.431 10.495-8.792 14.759-12.358 5.507-4.606 6.114-12.933 1.458-18.482l-.765.204c-2.594-3.091-6.119-4.26-9.667-4.232-2.195.017-6.408 1.557-6.408 1.557 2.326-1.952 4.519-3.792 6.489-5.445 5.433-4.558 6.135-12.653 1.536-18.134l-.833.203c-4.422-5.27-11.987-5-17.257-.578l-7.704 5.338c5.449-4.663 6.135-12.849 1.474-18.405l-.211-.252c-5.93-4.539-13.613-3.414-18.99 1.099l-67.789 56.25c-.847.711-1.931-.57-2.621-1.207-.035-.033-.062-.063-.095-.098-.353-.377-.573-.902-.528-1.507.327-4.404.839-11.293 1.342-18.051.452-6.084-1.576-11.814-5.259-16.156 0 0-7.2-4.674-12.767-5.505l-.298-.044c-2.313-.345-4.523 1.079-5.164 3.328l-7.472 30.963c-3.38 11.864-4.302 25.429-2.092 37.565 1.941 10.661-1.736 21.57-9.734 28.881l-46.312 46.287 14.325 3.518h71.512c13.726-9.592 25.581-9.186 36.104-11.312 12.123-2.45 23.432-7.899 32.901-15.857 16.215-13.628 42.112-35.392 56.21-47.238 5.489-4.612 6.092-12.911 1.442-18.452z" fill="#f4aa73"/><g><path d="m226.21 396.5c-2.05 7.2-3.08 14.63-3.08 22.07 0 4.82.43 9.65 1.3 14.42 1.94 10.66-1.74 21.57-9.74 28.88l-47.54 42.63h-28.04l57.58-51.63c8-7.31 11.68-18.22 9.74-28.88-.87-4.77-1.3-9.6-1.3-14.42 0-7.44 1.03-14.87 3.08-22.07l9.22-32.37c.64-2.25 2.85-3.68 5.16-3.33l.29.04c5.57.83 10.385 3.656 13.785 7.666z" fill="#ea9f6c"/></g><g fill="#ea9f6c"><path d="m355.136 352.871-55.196 46.299c-2.7 2.26-6.72 1.91-8.99-.79-1-1.2-1.49-2.65-1.49-4.1 0-1.82.78-3.63 2.28-4.89l37.66-31.6 8.42-7.06.04-.03c5.26-3.99 12.79-3.19 17.07 1.92z"/><path d="m330.64 339.22-72.336 60.695c-5.799 4.866-14.672 2.443-17.194-4.695.68.72 1.87.91 2.75.17l61.1-51.29 7.74-6.49c5.38-4.51 13.39-3.81 17.9 1.57z"/><path d="m363.95 378.92-47.49 39.84c-2.7 2.27-6.72 1.91-8.99-.79-1-1.2-1.49-2.65-1.49-4.09 0-1.82.78-3.63 2.28-4.89l38.81-32.51c5.29-3.62 12.57-2.7 16.78 2.32z"/><path d="m365.32 411.64-32.32 27.12c-2.7 2.27-6.72 1.91-8.99-.79-1-1.2-1.49-2.65-1.49-4.09 0-1.82.78-3.62 2.27-4.88l.01-.01 17.56-14.73c1.17-.98 2.35-1.97 3.53-2.96l2.04-1.7c5.31-4.08 12.94-3.27 17.29 1.91z"/></g></g><g><path d="m405.483 318.364-98.421-20.052c-1.159-.236-2-1.266-2-2.449v-37.221l14.796-9.787c16.141-10.677 25.777-28.606 25.776-47.958v-1.819c18.572-2.759 32.867-18.807 32.867-38.134.012-2.702-.493-6.533-2.18-10.743v-62.701c0-48.248-39.252-87.5-87.5-87.5h-19.325c-18.546 0-36.833 5.916-51.871 16.721-19.147-2.892-38.417 2.513-53.339 15.079-3.168 2.668-3.574 7.399-.906 10.568s7.399 3.574 10.568.906c9.404-7.919 21.03-12.164 33.025-12.292-2.977 10.461 1.35 21.602 5.735 28.385v11.263c0 11.958-6.945 23.071-17.693 28.312l-11.141 5.433c-10.194 5.014-17.548 16.706-17.504 28.594v1.531h-6.737c-2.773 0-5.445.438-7.954 1.242v-39.94c0-9.248 1.673-18.316 4.972-26.954 1.478-3.869-.461-8.204-4.331-9.682-3.869-1.479-8.205.46-9.682 4.331-3.954 10.353-5.959 21.222-5.959 32.306v52.35c-1.455 2.65-3.171 7.634-3.18 12.792 0 19.328 14.297 35.377 32.871 38.134v1.822c0 19.351 9.635 37.277 25.773 47.955l14.796 9.789v37.22c0 1.183-.841 2.213-2 2.449l-98.422 20.052c-22.028 4.486-38.017 24.061-38.017 46.542v27.199c0 4.142 3.358 7.5 7.5 7.5s7.5-3.358 7.5-7.5v-27.199c0-15.382 10.939-28.775 26.012-31.846l98.421-20.052c1.955-.398 3.776-1.126 5.422-2.106 7.194 5.227 15.178 9.061 23.834 11.373.649.173 1.3.256 1.941.256 3.313 0 6.345-2.213 7.241-5.566 1.069-4.002-1.309-8.113-5.31-9.182-7.033-1.879-13.512-5.021-19.33-9.329.129-.85.209-1.714.209-2.594v-27.296l7.849 5.193c7.961 5.267 17.084 7.901 26.209 7.9 9.123 0 18.247-2.633 26.206-7.898l7.857-5.197v27.298c0 .879.08 1.743.208 2.592-5.595 4.142-11.809 7.212-18.541 9.114-3.986 1.126-6.305 5.271-5.179 9.256.934 3.305 3.941 5.463 7.214 5.463.675 0 1.361-.092 2.042-.284 8.279-2.339 15.929-6.079 22.841-11.1 1.645.98 3.466 1.707 5.421 2.106l98.421 20.052c15.073 3.071 26.012 16.464 26.012 31.846v93.093h-55v-28.075c3.884-7.188 3.247-16.344-2.331-22.991-.809-.94-1.303-1.554-3.964-3.695 3.142-2.594 6.626-7.822 7.23-13.867.489-5.537-1.274-11.147-4.837-15.393-1.609-1.917-3.53-3.472-5.653-4.653 2.987-6.867 2.082-15.145-3.063-21.276-3.482-4.149-8.371-6.694-13.767-7.166-2.299-.2-4.567.009-6.741.557-.815-2.464-2.09-4.781-3.812-6.833-3.526-4.203-8.479-6.78-13.944-7.258-5.464-.477-10.789 1.202-14.992 4.729l-58.598 49.182.375-5.041c1.155-15.528-10.01-29.495-25.417-31.795l-.286-.043c-6.014-.897-11.816 2.837-13.483 8.691l-9.223 32.375c-3.674 12.898-4.347 26.688-1.945 39.881 1.488 8.173-1.284 16.398-7.362 21.954l-38.187 34.242v-73.525c0-4.142-3.358-7.5-7.5-7.5s-7.5 3.358-7.5 7.5v50h-55v-30.915c0-4.142-3.358-7.5-7.5-7.5s-7.5 3.358-7.5 7.5v77.415c0 4.142 3.358 7.5 7.5 7.5s7.5-3.358 7.5-7.5v-31.5h55v21.975l-4.395 3.941c-3.084 2.766-3.342 7.507-.577 10.591 1.481 1.652 3.529 2.493 5.586 2.493 1.783 0 3.573-.632 5.004-1.916l57.635-51.681c9.965-9.109 14.471-22.478 12.052-35.761-1.993-10.944-1.435-22.384 1.613-33.084l8.494-29.813c6.549 2.001 11.052 8.364 10.532 15.363l-1.693 22.772c-.224 3.008 1.376 5.856 4.06 7.231 2.686 1.376 5.932 1.007 8.241-.931l72.216-60.612c1.134-.952 2.57-1.408 4.042-1.275 1.473.129 2.808.824 3.759 1.957.983 1.171 1.453 2.642 1.325 4.141-.125 1.46-.809 2.781-1.919 3.736l-42.447 35.619c-3.173 2.663-3.586 7.393-.924 10.566 1.483 1.768 3.608 2.679 5.749 2.679 1.701 0 3.412-.576 4.817-1.755 5.512-4.626 46.406-38.941 50.282-42.194 1.08-.907 2.447-1.335 3.853-1.215 1.404.123 2.677.786 3.584 1.866.938 1.118 1.388 2.522 1.266 3.953-.121 1.416-.788 2.699-1.837 3.579-4.673 3.752-44.937 37.713-50.291 42.198-3.17 2.667-3.578 7.397-.911 10.567 1.483 1.764 3.605 2.672 5.743 2.672 1.704 0 3.418-.578 4.824-1.761-.018.016 42.541-35.788 42.691-35.912 1.048-.881 2.374-1.302 3.743-1.182 1.367.119 2.605.763 3.487 1.813 1.021 1.218 1.527 2.833 1.386 4.432-.074.839-.408 2.423-1.81 3.596l-42.494 35.615c-3.172 2.663-3.586 7.394-.923 10.566 2.662 3.172 7.393 3.586 10.566.923l27.466-23.052c1.042-.874 2.357-1.291 3.716-1.172 1.354.119 2.582.757 3.457 1.801l.208.249c1.966 2.343 1.685 5.831-.627 7.774l-56.21 47.238c-8.479 7.126-18.701 12.053-29.562 14.247-2.101.425-4.335.75-6.701 1.094-8.926 1.297-20.035 2.912-32.213 11.422-3.396 2.373-4.225 7.049-1.852 10.444 1.458 2.087 3.787 3.205 6.154 3.205 1.483 0 2.981-.439 4.29-1.353 9.264-6.473 17.286-7.639 25.779-8.874 2.462-.358 5.009-.728 7.515-1.234 13.314-2.69 25.846-8.73 36.241-17.467l46.008-38.664v60.09c0 4.142 3.358 7.5 7.5 7.5s7.5-3.358 7.5-7.5v-31.5h55v31.5c0 4.142 3.358 7.5 7.5 7.5s7.5-3.358 7.5-7.5v-139.592c.002-22.481-15.987-42.056-38.015-46.544zm-41.983-157.421c0 11.028-7.618 20.306-17.868 22.858l-.001-34.301h6.735c5.213-.092 11.247 4.965 11.134 11.443zm-215 0c-.213-5.179 4.539-11.336 11.134-11.443h6.737v34.302c-10.251-2.551-17.871-11.83-17.871-22.859zm125.428 100.308c-10.893 7.206-24.97 7.206-35.863-.001l-37.645-24.906c-11.928-7.892-19.049-21.142-19.049-35.445v-67.931c0-6.392 3.511-12.191 9.167-15.155l11.053-5.39c14.669-7.154 24.539-21.716 25.944-37.823 15.142 12.139 34.016 18.862 53.878 18.862h8.181c3.713 0 7.408.503 10.982 1.496 3.995 1.113 8.126-1.227 9.234-5.218 1.109-3.991-1.228-8.125-5.218-9.234-4.881-1.356-9.927-2.044-14.998-2.044h-8.181c-21.596 0-41.781-9.623-55.378-26.4-2.634-3.23-8.824-15.694-1.648-21.67 12.482-10.395 28.863-15.392 45.108-15.392h19.325c39.977 0 72.5 32.523 72.5 72.5v48.581c-2.794-1.022-5.81-1.581-8.954-1.581h-6.735v-.017c0-10.806-3.1-21.316-8.967-30.393-2.249-3.479-6.891-4.475-10.37-2.228-3.479 2.249-4.476 6.891-2.228 10.37 4.295 6.645 6.565 14.339 6.564 22.25l.002 66.413c0 14.305-7.122 27.556-19.052 35.448z"/><path d="m306.899 163.973c-8.39-4.274-18.407-4.274-26.797 0-3.69 1.88-5.158 6.396-3.278 10.087 1.88 3.69 6.397 5.158 10.087 3.278 4.126-2.102 9.052-2.102 13.178 0 1.091.556 2.253.819 3.399.819 2.73 0 5.364-1.497 6.688-4.097 1.881-3.691.413-8.207-3.277-10.087z"/><path d="m235.177 174.06c1.88-3.691.413-8.207-3.278-10.087-8.39-4.274-18.407-4.274-26.797 0-3.69 1.88-5.158 6.396-3.278 10.087 1.88 3.69 6.397 5.158 10.087 3.278 4.126-2.102 9.052-2.102 13.178 0 1.091.556 2.253.819 3.399.819 2.731 0 5.364-1.497 6.689-4.097z"/><path d="m242.601 204.854c4.195 2.137 8.797 3.206 13.399 3.206s9.204-1.069 13.399-3.206c3.69-1.881 5.158-6.397 3.277-10.088s-6.398-5.157-10.088-3.277c-4.125 2.103-9.052 2.103-13.177 0-3.69-1.88-8.207-.414-10.088 3.277-1.879 3.691-.412 8.207 3.278 10.088z"/><path d="m209.199 148.942c5.912-2.782 12.691-2.781 18.601 0 3.747 1.763 8.216.155 9.98-3.592 1.764-3.748.155-8.216-3.592-9.98-9.969-4.691-21.405-4.691-31.375 0-3.748 1.764-5.356 6.232-3.593 9.979 1.278 2.716 3.976 4.309 6.791 4.309 1.07 0 2.157-.231 3.188-.716z"/><path d="m309.188 135.37c-9.969-4.691-21.405-4.691-31.375 0-3.748 1.764-5.356 6.232-3.593 9.979 1.278 2.716 3.976 4.309 6.791 4.309 1.07 0 2.157-.23 3.188-.716 5.912-2.782 12.691-2.781 18.601 0 3.748 1.763 8.215.155 9.98-3.592 1.764-3.748.156-8.216-3.592-9.98z"/><path d="m273.359 218.319c-10.387 5.293-22.79 5.293-33.178 0-3.69-1.88-8.207-.414-10.087 3.278-1.88 3.69-.413 8.207 3.278 10.087 7.326 3.732 15.362 5.599 23.398 5.599 8.037 0 16.073-1.866 23.398-5.599 3.691-1.88 5.158-6.397 3.278-10.087-1.88-3.691-6.398-5.159-10.087-3.278z"/></g></g></svg>