<svg clip-rule="evenodd" fill-rule="evenodd" stroke-linejoin="round" stroke-miterlimit="2" viewBox="0 0 356 356" xmlns="http://www.w3.org/2000/svg" xmlns:serif="http://www.serif.com/"><g id="Exp-5.-DL"><g><path d="m105.248 304.113c-1.461-2.083-2.633-4.405-3.449-6.916-4.454-13.708-9.822-30.229-9.822-30.229s-14.053-10.21-25.714-18.682c-9.144-6.643-12.97-18.419-9.477-29.168 4.454-13.709 9.822-30.229 9.822-30.229s-5.368-16.52-9.822-30.229c-3.493-10.749.333-22.525 9.477-29.168 11.661-8.472 25.714-18.682 25.714-18.682s5.368-16.521 9.822-30.229c3.493-10.749 13.51-18.027 24.812-18.027h31.785s14.053-10.21 25.714-18.683c5.03-3.654 11.04-5.298 16.952-4.931l17.209 12.503h31.784c11.303 0 21.32 7.277 24.812 18.027 4.454 13.708 9.822 30.228 9.822 30.228s14.053 10.211 25.714 18.683c9.144 6.643 12.97 18.419 9.478 29.168-4.454 13.708-9.822 30.229-9.822 30.229s5.368 16.52 9.822 30.228c3.492 10.75-.334 22.525-9.478 29.169-11.661 8.472-25.714 18.682-25.714 18.682s-5.368 16.52-9.822 30.229c-3.492 10.749-13.509 18.027-24.812 18.027-14.414 0-31.784 0-31.784 0s-14.053 10.21-25.714 18.682c-9.144 6.644-21.526 6.644-30.669 0-11.662-8.472-25.715-18.682-25.715-18.682zm34.161-165.482c-4.028-12.167 5.533-36.694 27.997-40.35 22.05-3.588 40.967 9.728 66.735-3.653 0 0-5.808 59.006-48.334 69.908-21.925 5.62-40.172-7.102-46.398-25.905z" fill="#fee0bc"/><path d="m230.836 113.127c-5.325 18.283-17.529 44.502-44.474 51.409-21.348 5.472-39.209-6.446-45.88-24.432 3.339-11.103 12.566-22.729 27.48-25.156 20.934-3.406 39.044 8.423 62.874-1.821z" fill="#dde825"/><g fill="#1c3d57"><path d="m195.011 314.549-5.164 3.752c-7.197 5.228-16.942 5.228-24.138 0-11.661-8.473-25.715-18.683-25.715-18.683-.949-.689-2.092-1.061-3.265-1.061 0 0-17.37 0-31.784 0-8.896 0-16.78-5.728-19.529-14.188-4.454-13.708-9.822-30.229-9.822-30.229-.362-1.115-1.069-2.088-2.018-2.777 0 0-14.053-10.211-25.714-18.683-7.197-5.228-10.208-14.497-7.459-22.957 4.454-13.708 9.822-30.228 9.822-30.228.362-1.116.362-2.318 0-3.434 0 0-5.368-16.52-9.822-30.229-2.749-8.46.262-17.728 7.459-22.957 11.661-8.472 25.714-18.682 25.714-18.682.949-.69 1.656-1.662 2.018-2.778 0 0 5.368-16.52 9.822-30.228 2.749-8.461 10.633-14.189 19.529-14.189h31.784c1.173 0 2.316-.371 3.265-1.061 0 0 14.054-10.21 25.715-18.682 7.196-5.229 16.941-5.229 24.138 0 11.661 8.472 25.714 18.682 25.714 18.682.949.69 2.092 1.061 3.266 1.061h31.784c8.895 0 16.779 5.728 19.528 14.188 4.454 13.709 9.822 30.229 9.822 30.229.363 1.116 1.069 2.088 2.018 2.778 0 0 14.053 10.21 25.714 18.682 7.197 5.229 10.209 14.497 7.46 22.957-.948 2.916.65 6.053 3.566 7.001 2.917.947 6.053-.651 7.001-3.567 4.236-13.038-.405-27.322-11.496-35.38 0 0-24.253-17.621-24.253-17.621s-9.264-28.512-9.264-28.512c-4.237-13.038-16.387-21.866-30.096-21.866h-29.979s-24.254-17.621-24.254-17.621c-11.091-8.058-26.109-8.058-37.2 0 0 0-24.254 17.621-24.254 17.621h-29.979c-13.71 0-25.86 8.828-30.096 21.866 0 0-9.264 28.512-9.264 28.512s-24.254 17.621-24.254 17.621c-11.091 8.058-15.732 22.342-11.495 35.38 0 0 9.264 28.512 9.264 28.512s-9.264 28.512-9.264 28.512c-4.237 13.038.404 27.321 11.495 35.379 0 0 24.254 17.622 24.254 17.622s9.264 28.512 9.264 28.512c4.236 13.038 16.386 21.865 30.096 21.865h29.979s24.254 17.622 24.254 17.622c11.091 8.058 26.109 8.058 37.2 0 1.688-1.227 3.426-2.489 5.164-3.752 2.481-1.802 3.031-5.28 1.229-7.76-1.802-2.481-5.279-3.032-7.76-1.229z"/><path d="m307.47 169.475-2.139 6.586c-.363 1.116-.363 2.318 0 3.434 0 0 5.367 16.52 9.822 30.228 2.749 8.46-.263 17.729-7.46 22.957-11.661 8.472-25.714 18.683-25.714 18.683-.949.689-1.655 1.662-2.018 2.777 0 0-5.368 16.521-9.822 30.229-2.749 8.46-10.633 14.188-19.528 14.188-14.414 0-31.784 0-31.784 0-3.067 0-5.556 2.49-5.556 5.556s2.489 5.555 5.556 5.555h31.784c13.709 0 25.859-8.827 30.096-21.865 0 0 9.264-28.512 9.264-28.512s24.253-17.622 24.253-17.622c11.091-8.058 15.732-22.341 11.496-35.379 0 0-9.264-28.512-9.264-28.512s1.582-4.869 1.582-4.869c.947-2.916-.651-6.053-3.567-7-2.916-.948-6.053.65-7.001 3.566z"/><path d="m184.983 159.154c-18.797 4.819-34.406-6.149-39.744-22.27-1.279-3.862-.612-9.272 1.525-14.586 3.397-8.445 10.756-16.689 22.09-18.533 10.505-1.71 20.256.732 30.458 1.882 8.925 1.007 18.138 1.186 28.257-2.036-2.465 11.47-8.433 30.831-22.044 43.93-2.209 2.127-2.276 5.646-.15 7.856 2.126 2.209 5.646 2.276 7.855.15 23.123-22.255 26.995-60.375 26.995-60.375.2-2.028-.727-4.002-2.415-5.145-1.688-1.142-3.865-1.268-5.674-.329-14.201 7.374-26.158 5.73-37.809 4.099-9.005-1.26-17.866-2.527-27.257-.999-15.624 2.542-25.931 13.712-30.614 25.353-3.25 8.078-3.709 16.354-1.765 22.226 7.114 21.486 27.998 35.963 53.051 29.54 2.97-.761 4.763-3.791 4.002-6.761s-3.791-4.763-6.761-4.002z"/><path d="m102.918 135.702c13.821 5.345 26.536 7.864 38.067 8.461 28.496 1.474 49.855-8.764 63.026-17.768 2.531-1.731 3.181-5.191 1.451-7.722-1.731-2.531-5.191-3.181-7.722-1.451-11.741 8.027-30.779 17.158-56.181 15.844-10.493-.543-22.056-2.863-34.633-7.727-2.859-1.107-6.079.317-7.185 3.177s.317 6.079 3.177 7.186z"/><path d="m85.709 214.986 9.996-5.207v42.737c0 3.066 2.489 5.556 5.555 5.556 3.067 0 5.556-2.49 5.556-5.556v-51.896c0-1.942-1.014-3.743-2.674-4.75-1.661-1.007-3.726-1.074-5.448-.177l-18.118 9.439c-2.72 1.417-3.777 4.775-2.36 7.494 1.416 2.719 4.774 3.777 7.493 2.36z"/><path d="m261.224 199.45-37.718 47.355c-1.91 2.398-1.514 5.897.884 7.807 2.399 1.91 5.897 1.514 7.807-.884l37.718-47.355c1.911-2.399 1.514-5.897-.884-7.807-2.398-1.911-5.896-1.514-7.807.884z"/><path d="m230.673 194.801c-6.018 0-10.903 4.886-10.903 10.904s4.885 10.904 10.903 10.904 10.904-4.886 10.904-10.904-4.886-10.904-10.904-10.904zm0 11.112c-.114 0-.207-.093-.207-.208 0-.114.093-.207.207-.207.115 0 .208.093.208.207 0 .115-.093.208-.208.208z"/><path d="m261.846 235.706c-6.018 0-10.904 4.885-10.904 10.903s4.886 10.904 10.904 10.904 10.903-4.886 10.903-10.904-4.885-10.903-10.903-10.903zm0 11.111c-.115 0-.208-.093-.208-.208 0-.114.093-.207.208-.207.114 0 .207.093.207.207 0 .115-.093.208-.207.208z"/><path d="m157.404 237.267v-21.398c0-11.49-9.315-20.804-20.805-20.804 0 0 0 0-.001 0-11.49 0-20.804 9.314-20.804 20.804v21.398c0 11.49 9.314 20.805 20.804 20.805h.001c11.49 0 20.805-9.315 20.805-20.805zm-11.111-21.398v21.398c-.001 5.354-4.34 9.694-9.694 9.694h-.001c-5.353 0-9.693-4.34-9.693-9.693 0-.001 0-21.399 0-21.399 0-5.354 4.34-9.693 9.693-9.693h.001c5.354 0 9.693 4.339 9.694 9.693z"/><path d="m207.991 237.267v-21.398c0-11.49-9.314-20.804-20.804-20.804h-.001c-11.49 0-20.804 9.314-20.804 20.804v21.398c0 11.49 9.314 20.805 20.804 20.805h.001c11.49 0 20.804-9.315 20.804-20.805zm-11.111-21.398v21.398c0 5.354-4.34 9.694-9.693 9.694h-.001c-5.353 0-9.693-4.34-9.693-9.693 0-.001 0-21.399 0-21.399 0-5.354 4.34-9.693 9.693-9.693h.001c5.353 0 9.693 4.339 9.693 9.693z"/></g></g></g></svg>